<svg width="32" height="32" viewBox="0 0 32 32" fill="none" xmlns="http://www.w3.org/2000/svg">
<g clip-path="url(#clip0_258_3243)">
<path fill-rule="evenodd" clip-rule="evenodd" d="M32 13.3333C32 4.66667 25.3333 0 16 0C6.66667 0 0 4.66667 0 13.3333C0 22 6.66667 26.6281 14.6667 26.6281V30.04C14.6667 30.716 14.6667 31.054 14.8781 31.3833C15.0264 31.6141 15.38 31.8747 15.6445 31.9479C16.0217 32.0521 16.2712 31.9747 16.7703 31.8197C24 29.3333 32 22 32 13.3333ZM24 9.33333V12H8V9.33333H24ZM18.6667 14.6667H8V17.3333H18.6667V14.6667Z" fill="#EF3124"/>
</g>
<defs>
<clipPath id="clip0_258_3243">
<rect width="32" height="32" fill="white"/>
</clipPath>
</defs>
</svg>
