<svg width="32" height="29" viewBox="0 0 32 29" fill="none" xmlns="http://www.w3.org/2000/svg">
<g clip-path="url(#clip0_260_3256)">
<path d="M9.6 3.2C9.6 1.43269 11.0327 0 12.8 0H19.2C20.9674 0 22.4 1.43269 22.4 3.2V6.39922H28.8C30.5674 6.39922 32 7.8319 32 9.59922V12.7992V15.9992V25.5992C32 27.3666 30.5674 28.7992 28.8 28.7992H3.2C1.43269 28.7992 0 27.3666 0 25.5992V15.9992V12.7992V9.59922C0 7.8319 1.43269 6.39922 3.2 6.39922H9.6V3.2ZM19.2 3.2H12.8V6.39922H19.2V3.2ZM10.5437 14.2627L13.7437 17.4627L10.5437 20.6627L12.8066 22.9254L16.0066 19.7254L19.2066 22.9254L21.4693 20.6627L18.2693 17.4627L21.4693 14.2627L19.2066 12L16.0066 15.2L12.8066 12L10.5437 14.2627Z" fill="#EF3124"/>
</g>
<defs>
<clipPath id="clip0_260_3256">
<rect width="32" height="28.8" fill="white"/>
</clipPath>
</defs>
</svg>
