<svg width="32" height="32" viewBox="0 0 32 32" fill="none" xmlns="http://www.w3.org/2000/svg">
<g clip-path="url(#clip0_260_3251)">
<path d="M24 29.8565C26.4323 28.4522 28.4522 26.4323 29.8565 24L16 16V0C13.1914 0 10.4323 0.739296 8 2.1436C5.5677 3.54789 3.54789 5.5677 2.1436 8C0.739296 10.4323 0 13.1914 0 16C0 18.8086 0.739296 21.5677 2.1436 24C3.54789 26.4323 5.5677 28.4522 8 29.8565C10.4323 31.2606 13.1914 32 16 32C18.8086 32 21.5677 31.2606 24 29.8565Z" fill="#EF3124"/>
<path d="M19.2002 3.60302V0.319824C26.5034 1.80229 32.0002 8.25911 32.0002 15.9997C32.0002 17.7716 31.7122 19.476 31.1805 21.0692L28.3362 19.4269C28.6386 18.3362 28.8002 17.1869 28.8002 15.9997C28.8002 10.0355 24.721 5.02397 19.2002 3.60302Z" fill="#EF3124"/>
</g>
<defs>
<clipPath id="clip0_260_3251">
<rect width="32" height="32" fill="white"/>
</clipPath>
</defs>
</svg>
