<svg width="32" height="33" viewBox="0 0 32 33" fill="none" xmlns="http://www.w3.org/2000/svg">
<g clip-path="url(#clip0_260_3260)">
<path d="M21.3332 9.49992C21.3332 6.19819 19.9998 2.83325 15.9998 2.83325C11.9998 2.83325 10.6665 6.13655 10.6665 9.49992C10.6665 12.8633 13.0299 15.4999 15.9998 15.4999C18.9698 15.4999 21.3332 12.8017 21.3332 9.49992Z" fill="#0E0E0E"/>
<path d="M5.40536 23.7065C6.80769 22.0266 9.50123 20.0062 13.4347 19.3691L14.6667 21.8331L13.5239 29.8331H4V26.7855C4.07865 25.4597 4.60271 24.6679 5.40536 23.7065Z" fill="#0E0E0E"/>
<path d="M17.3335 21.8331L18.5655 19.3691C22.499 20.0062 25.1924 22.0266 26.5948 23.7065C27.3975 24.6679 27.9215 25.4597 28.0002 26.7855V29.8331H18.4764L17.3335 21.8331Z" fill="#0E0E0E"/>
</g>
<defs>
<clipPath id="clip0_260_3260">
<rect width="32" height="32" fill="white" transform="translate(0 0.5)"/>
</clipPath>
</defs>
</svg>
