<svg width="32" height="32" viewBox="0 0 32 32" fill="none" xmlns="http://www.w3.org/2000/svg">
<path fill-rule="evenodd" clip-rule="evenodd" d="M16 32C24.8365 32 32 24.8365 32 16C32 7.16344 24.8365 0 16 0C7.16344 0 0 7.16344 0 16C0 24.8365 7.16344 32 16 32ZM16 10.4C12.9072 10.4 10.4 12.9072 10.4 16H8C8 11.5817 11.5817 8 16 8C18.4494 8 20.6419 9.10086 22.1093 10.8348L22.4 8.8H24V14.4H18.4V12.8L20.385 12.5164C19.3589 11.2268 17.776 10.4 16 10.4ZM21.6 16C21.6 19.0928 19.0928 21.6 16 21.6C14.224 21.6 12.641 20.7733 11.6151 19.4835L13.6 19.2V17.6H8V23.2H9.6L9.89069 21.1651C11.3582 22.8992 13.5506 24 16 24C20.4182 24 24 20.4182 24 16H21.6Z" fill="#EF3124"/>
</svg>
