<svg width="22" height="23" viewBox="0 0 22 23" fill="none" xmlns="http://www.w3.org/2000/svg">
<path d="M20.1667 8.29171C20.1667 11.5825 17.4992 14.25 14.2083 14.25C14.0525 14.25 13.8875 14.2409 13.7317 14.2317C13.5025 11.3259 11.1742 8.99753 8.26832 8.76836C8.25916 8.61253 8.25 8.44754 8.25 8.29171C8.25 5.00087 10.9175 2.33337 14.2083 2.33337C17.4992 2.33337 20.1667 5.00087 20.1667 8.29171Z" stroke="white" stroke-width="1.5" stroke-linecap="round" stroke-linejoin="round"/>
<path d="M13.7502 14.7083C13.7502 17.9992 11.0827 20.6667 7.79183 20.6667C4.501 20.6667 1.8335 17.9992 1.8335 14.7083C1.8335 11.4175 4.501 8.75 7.79183 8.75C7.94766 8.75 8.11265 8.75916 8.26849 8.76832C11.1743 8.99749 13.5027 11.3258 13.7318 14.2317C13.741 14.3875 13.7502 14.5525 13.7502 14.7083Z" stroke="white" stroke-width="1.5" stroke-linecap="round" stroke-linejoin="round"/>
<path d="M5.12433 2.33337H2.75016C2.246 2.33337 1.8335 2.74587 1.8335 3.25004V5.6242C1.8335 6.44004 2.82349 6.85253 3.40099 6.27503L5.77515 3.90087C6.34348 3.32337 5.94016 2.33337 5.12433 2.33337Z" stroke="white" stroke-width="1.5" stroke-linecap="round" stroke-linejoin="round"/>
<path d="M16.8757 20.6667H19.2499C19.7541 20.6667 20.1666 20.2542 20.1666 19.7501V17.3759C20.1666 16.5601 19.1766 16.1476 18.5991 16.7251L16.2249 19.0992C15.6566 19.6767 16.0599 20.6667 16.8757 20.6667Z" stroke="white" stroke-width="1.5" stroke-linecap="round" stroke-linejoin="round"/>
</svg>
