<svg width="34" height="34" viewBox="0 0 34 34" fill="none" xmlns="http://www.w3.org/2000/svg">
<path fill-rule="evenodd" clip-rule="evenodd" d="M17 34C26.3889 34 34 26.3888 34 17C34 7.61117 26.3889 0 17 0C7.61115 0 0 7.61117 0 17C0 26.3888 7.61115 34 17 34ZM22.3034 7.91932C22.5616 7.00235 21.6717 6.46011 20.859 7.03911L9.51416 15.1211C8.63279 15.749 8.77143 17 9.72241 17H12.7098V16.9769H18.5322L13.788 18.6508L11.6966 26.0807C11.4385 26.9977 12.3283 27.5399 13.141 26.9609L24.4859 18.8789C25.3673 18.251 25.2285 17 24.2776 17H19.7473L22.3034 7.91932Z" fill="#EB3426"/>
</svg>
