<svg width="22" height="22" viewBox="0 0 22 22" fill="none" xmlns="http://www.w3.org/2000/svg">
<path d="M11.9167 8.25H6.41675" stroke="#5A5A5A" stroke-width="1.5" stroke-linecap="round" stroke-linejoin="round"/>
<path d="M20.1668 10.0558V11.9442C20.1668 12.4484 19.7634 12.8608 19.2501 12.8792H17.4534C16.4634 12.8792 15.556 12.155 15.4735 11.165C15.4185 10.5875 15.6384 10.0467 16.0234 9.67083C16.3626 9.32249 16.8301 9.12085 17.3434 9.12085H19.2501C19.7634 9.13918 20.1668 9.55164 20.1668 10.0558Z" stroke="#5A5A5A" stroke-width="1.5" stroke-linecap="round" stroke-linejoin="round"/>
<path d="M16.0232 9.67086C15.6382 10.0467 15.4183 10.5875 15.4733 11.165C15.5558 12.155 16.4632 12.8792 17.4532 12.8792H19.2499V14.2084C19.2499 16.9584 17.4166 18.7917 14.6666 18.7917H6.41659C3.66659 18.7917 1.83325 16.9584 1.83325 14.2084V7.79171C1.83325 5.29837 3.33659 3.55671 5.67409 3.26337C5.91242 3.22671 6.15992 3.20837 6.41659 3.20837H14.6666C14.9049 3.20837 15.1341 3.21753 15.3541 3.2542C17.7191 3.5292 19.2499 5.28004 19.2499 7.79171V9.12088H17.3432C16.8299 9.12088 16.3624 9.32253 16.0232 9.67086Z" stroke="#5A5A5A" stroke-width="1.5" stroke-linecap="round" stroke-linejoin="round"/>
</svg>
