<svg width="22" height="22" viewBox="0 0 22 22" fill="none" xmlns="http://www.w3.org/2000/svg">
<path d="M16.0809 7.6162C17.3263 7.6162 18.3359 6.6066 18.3359 5.3612C18.3359 4.1158 17.3263 3.1062 16.0809 3.1062C14.8355 3.1062 13.8259 4.1158 13.8259 5.3612C13.8259 6.6066 14.8355 7.6162 16.0809 7.6162Z" stroke="#5A5A5A" stroke-width="1.5" stroke-miterlimit="10" stroke-linecap="round" stroke-linejoin="round"/>
<path d="M5.92542 7.6162C7.17082 7.6162 8.18041 6.6066 8.18041 5.3612C8.18041 4.1158 7.17082 3.1062 5.92542 3.1062C4.68001 3.1062 3.67041 4.1158 3.67041 5.3612C3.67041 6.6066 4.68001 7.6162 5.92542 7.6162Z" stroke="#5A5A5A" stroke-width="1.5" stroke-miterlimit="10" stroke-linecap="round" stroke-linejoin="round"/>
<path d="M16.0809 18.8927C17.3263 18.8927 18.3359 17.8831 18.3359 16.6377C18.3359 15.3923 17.3263 14.3827 16.0809 14.3827C14.8355 14.3827 13.8259 15.3923 13.8259 16.6377C13.8259 17.8831 14.8355 18.8927 16.0809 18.8927Z" stroke="#5A5A5A" stroke-width="1.5" stroke-miterlimit="10" stroke-linecap="round" stroke-linejoin="round"/>
<path d="M5.92542 18.8927C7.17082 18.8927 8.18041 17.8831 8.18041 16.6377C8.18041 15.3923 7.17082 14.3827 5.92542 14.3827C4.68001 14.3827 3.67041 15.3923 3.67041 16.6377C3.67041 17.8831 4.68001 18.8927 5.92542 18.8927Z" stroke="#5A5A5A" stroke-width="1.5" stroke-miterlimit="10" stroke-linecap="round" stroke-linejoin="round"/>
</svg>
