<svg width="36" height="36" viewBox="0 0 36 36" fill="none" xmlns="http://www.w3.org/2000/svg">
<path d="M33 12.75C33 18.135 28.635 22.5 23.25 22.5C22.995 22.5 22.725 22.485 22.47 22.47C22.095 17.715 18.285 13.905 13.53 13.53C13.515 13.275 13.5 13.005 13.5 12.75C13.5 7.365 17.865 3 23.25 3C28.635 3 33 7.365 33 12.75Z" stroke="#5A5A5A" stroke-width="1.5" stroke-linecap="round" stroke-linejoin="round"/>
<path d="M22.5 23.25C22.5 28.635 18.135 33 12.75 33C7.365 33 3 28.635 3 23.25C3 17.865 7.365 13.5 12.75 13.5C13.005 13.5 13.275 13.515 13.53 13.53C18.285 13.905 22.095 17.715 22.47 22.47C22.485 22.725 22.5 22.995 22.5 23.25Z" stroke="#5A5A5A" stroke-width="1.5" stroke-linecap="round" stroke-linejoin="round"/>
<path d="M8.38499 3H4.5C3.675 3 3 3.675 3 4.5V8.38499C3 9.71999 4.61999 10.395 5.56499 9.44998L9.44998 5.56499C10.38 4.61999 9.71999 3 8.38499 3Z" stroke="#5A5A5A" stroke-width="1.5" stroke-linecap="round" stroke-linejoin="round"/>
<path d="M27.6151 33H31.5001C32.3251 33 33.0001 32.325 33.0001 31.5V27.615C33.0001 26.28 31.3801 25.605 30.4351 26.55L26.5501 30.435C25.6201 31.38 26.2801 33 27.6151 33Z" stroke="#5A5A5A" stroke-width="1.5" stroke-linecap="round" stroke-linejoin="round"/>
</svg>
