<svg width="23" height="13" viewBox="0 0 23 13" fill="none" xmlns="http://www.w3.org/2000/svg">
<path d="M21.7603 0.303356L11.4578 10.5178L1.24411 0.215308C0.961408 -0.0703064 0.500423 -0.0717621 0.215172 0.210942C-0.0700786 0.493646 -0.0718975 0.954631 0.210806 1.23952L10.8328 11.9539C10.9656 12.0878 11.1366 12.1587 11.3101 12.1682C11.3607 12.1711 11.4113 12.1678 11.4611 12.1606C11.4808 12.1635 11.4997 12.1682 11.5193 12.1686C11.7173 12.1791 11.9192 12.1096 12.0705 11.959L22.7846 1.3363C23.0702 1.0536 23.072 0.592974 22.7889 0.307359C22.5059 0.0217446 22.0452 0.0202887 21.7603 0.303356Z" fill="#5A5A5A"/>
</svg>
