<svg width="36" height="36" viewBox="0 0 36 36" fill="none" xmlns="http://www.w3.org/2000/svg">
<path d="M12 25.5C11.7033 25.5 11.4133 25.588 11.1666 25.7528C10.92 25.9176 10.7277 26.1519 10.6142 26.426C10.5006 26.7001 10.4709 27.0017 10.5288 27.2926C10.5867 27.5836 10.7296 27.8509 10.9393 28.0607C11.1491 28.2704 11.4164 28.4133 11.7074 28.4712C11.9983 28.5291 12.2999 28.4994 12.574 28.3858C12.8481 28.2723 13.0824 28.08 13.2472 27.8334C13.412 27.5867 13.5 27.2967 13.5 27C13.5 26.6022 13.342 26.2206 13.0607 25.9393C12.7794 25.658 12.3978 25.5 12 25.5ZM12 16.5C11.7033 16.5 11.4133 16.588 11.1666 16.7528C10.92 16.9176 10.7277 17.1519 10.6142 17.426C10.5006 17.7001 10.4709 18.0017 10.5288 18.2926C10.5867 18.5836 10.7296 18.8509 10.9393 19.0607C11.1491 19.2704 11.4164 19.4133 11.7074 19.4712C11.9983 19.5291 12.2999 19.4994 12.574 19.3858C12.8481 19.2723 13.0824 19.08 13.2472 18.8334C13.412 18.5867 13.5 18.2967 13.5 18C13.5 17.6022 13.342 17.2206 13.0607 16.9393C12.7794 16.658 12.3978 16.5 12 16.5ZM24 3H12C10.4087 3 8.88258 3.63214 7.75736 4.75736C6.63214 5.88258 6 7.4087 6 9V27C6 28.5913 6.63214 30.1174 7.75736 31.2426C8.88258 32.3679 10.4087 33 12 33H24C25.5913 33 27.1174 32.3679 28.2426 31.2426C29.3679 30.1174 30 28.5913 30 27V9C30 7.4087 29.3679 5.88258 28.2426 4.75736C27.1174 3.63214 25.5913 3 24 3ZM27 27C27 27.7956 26.6839 28.5587 26.1213 29.1213C25.5587 29.6839 24.7956 30 24 30H12C11.2044 30 10.4413 29.6839 9.87868 29.1213C9.31607 28.5587 9 27.7956 9 27V23.16C9.90599 23.7053 10.9426 23.9956 12 24H24C25.0574 23.9956 26.094 23.7053 27 23.16V27ZM27 18C27 18.7956 26.6839 19.5587 26.1213 20.1213C25.5587 20.6839 24.7956 21 24 21H12C11.2044 21 10.4413 20.6839 9.87868 20.1213C9.31607 19.5587 9 18.7956 9 18V14.16C9.90599 14.7053 10.9426 14.9956 12 15H24C25.0574 14.9956 26.094 14.7053 27 14.16V18ZM24 12H12C11.2044 12 10.4413 11.6839 9.87868 11.1213C9.31607 10.5587 9 9.79565 9 9C9 8.20435 9.31607 7.44129 9.87868 6.87868C10.4413 6.31607 11.2044 6 12 6H24C24.7956 6 25.5587 6.31607 26.1213 6.87868C26.6839 7.44129 27 8.20435 27 9C27 9.79565 26.6839 10.5587 26.1213 11.1213C25.5587 11.6839 24.7956 12 24 12Z" fill="black"/>
</svg>
