<svg width="36" height="36" viewBox="0 0 36 36" fill="none" xmlns="http://www.w3.org/2000/svg">
<path d="M15 19.5H4.5C4.10218 19.5 3.72064 19.658 3.43934 19.9393C3.15804 20.2206 3 20.6022 3 21V31.5C3 31.8978 3.15804 32.2794 3.43934 32.5607C3.72064 32.842 4.10218 33 4.5 33H15C15.3978 33 15.7794 32.842 16.0607 32.5607C16.342 32.2794 16.5 31.8978 16.5 31.5V21C16.5 20.6022 16.342 20.2206 16.0607 19.9393C15.7794 19.658 15.3978 19.5 15 19.5ZM13.5 30H6V22.5H13.5V30ZM31.5 3H21C20.6022 3 20.2206 3.15804 19.9393 3.43934C19.658 3.72064 19.5 4.10218 19.5 4.5V15C19.5 15.3978 19.658 15.7794 19.9393 16.0607C20.2206 16.342 20.6022 16.5 21 16.5H31.5C31.8978 16.5 32.2794 16.342 32.5607 16.0607C32.842 15.7794 33 15.3978 33 15V4.5C33 4.10218 32.842 3.72064 32.5607 3.43934C32.2794 3.15804 31.8978 3 31.5 3ZM30 13.5H22.5V6H30V13.5ZM31.5 19.5H21C20.6022 19.5 20.2206 19.658 19.9393 19.9393C19.658 20.2206 19.5 20.6022 19.5 21V31.5C19.5 31.8978 19.658 32.2794 19.9393 32.5607C20.2206 32.842 20.6022 33 21 33H31.5C31.8978 33 32.2794 32.842 32.5607 32.5607C32.842 32.2794 33 31.8978 33 31.5V21C33 20.6022 32.842 20.2206 32.5607 19.9393C32.2794 19.658 31.8978 19.5 31.5 19.5ZM30 30H22.5V22.5H30V30ZM15 3H4.5C4.10218 3 3.72064 3.15804 3.43934 3.43934C3.15804 3.72064 3 4.10218 3 4.5V15C3 15.3978 3.15804 15.7794 3.43934 16.0607C3.72064 16.342 4.10218 16.5 4.5 16.5H15C15.3978 16.5 15.7794 16.342 16.0607 16.0607C16.342 15.7794 16.5 15.3978 16.5 15V4.5C16.5 4.10218 16.342 3.72064 16.0607 3.43934C15.7794 3.15804 15.3978 3 15 3ZM13.5 13.5H6V6H13.5V13.5Z" fill="black"/>
</svg>
