<svg width="36" height="36" viewBox="0 0 36 36" fill="none" xmlns="http://www.w3.org/2000/svg">
<path d="M22.5 25.5C22.2033 25.5 21.9133 25.588 21.6666 25.7528C21.42 25.9176 21.2277 26.1519 21.1142 26.426C21.0006 26.7001 20.9709 27.0017 21.0288 27.2926C21.0867 27.5836 21.2296 27.8509 21.4393 28.0607C21.6491 28.2704 21.9164 28.4133 22.2074 28.4712C22.4983 28.5291 22.7999 28.4994 23.074 28.3858C23.3481 28.2723 23.5824 28.08 23.7472 27.8334C23.912 27.5867 24 27.2967 24 27C24 26.6022 23.842 26.2206 23.5607 25.9393C23.2794 25.658 22.8978 25.5 22.5 25.5ZM16.5 25.5H13.5C13.1022 25.5 12.7206 25.658 12.4393 25.9393C12.158 26.2206 12 26.6022 12 27C12 27.3978 12.158 27.7794 12.4393 28.0607C12.7206 28.342 13.1022 28.5 13.5 28.5H16.5C16.8978 28.5 17.2794 28.342 17.5607 28.0607C17.842 27.7794 18 27.3978 18 27C18 26.6022 17.842 26.2206 17.5607 25.9393C17.2794 25.658 16.8978 25.5 16.5 25.5ZM16.5 16.5H13.5C13.1022 16.5 12.7206 16.658 12.4393 16.9393C12.158 17.2206 12 17.6022 12 18C12 18.3978 12.158 18.7794 12.4393 19.0607C12.7206 19.342 13.1022 19.5 13.5 19.5H16.5C16.8978 19.5 17.2794 19.342 17.5607 19.0607C17.842 18.7794 18 18.3978 18 18C18 17.6022 17.842 17.2206 17.5607 16.9393C17.2794 16.658 16.8978 16.5 16.5 16.5ZM22.5 16.5C22.2033 16.5 21.9133 16.588 21.6666 16.7528C21.42 16.9176 21.2277 17.1519 21.1142 17.426C21.0006 17.7001 20.9709 18.0017 21.0288 18.2926C21.0867 18.5836 21.2296 18.8509 21.4393 19.0607C21.6491 19.2704 21.9164 19.4133 22.2074 19.4712C22.4983 19.5291 22.7999 19.4994 23.074 19.3858C23.3481 19.2723 23.5824 19.08 23.7472 18.8334C23.912 18.5867 24 18.2967 24 18C24 17.6022 23.842 17.2206 23.5607 16.9393C23.2794 16.658 22.8978 16.5 22.5 16.5ZM34.5 12C34.5 10.8065 34.0259 9.66193 33.182 8.81802C32.3381 7.97411 31.1935 7.5 30 7.5H28.5C28.5 6.30653 28.0259 5.16193 27.182 4.31802C26.3381 3.47411 25.1935 3 24 3H12C10.8065 3 9.66193 3.47411 8.81802 4.31802C7.97411 5.16193 7.5 6.30653 7.5 7.5H6C4.80653 7.5 3.66193 7.97411 2.81802 8.81802C1.97411 9.66193 1.5 10.8065 1.5 12V15C1.50662 16.1101 1.92332 17.1785 2.67 18C1.92332 18.8215 1.50662 19.8899 1.5 21V24C1.5 25.1935 1.97411 26.3381 2.81802 27.182C3.66193 28.0259 4.80653 28.5 6 28.5H7.5C7.5 29.6935 7.97411 30.8381 8.81802 31.682C9.66193 32.5259 10.8065 33 12 33H24C25.1935 33 26.3381 32.5259 27.182 31.682C28.0259 30.8381 28.5 29.6935 28.5 28.5H30C31.1935 28.5 32.3381 28.0259 33.182 27.182C34.0259 26.3381 34.5 25.1935 34.5 24V21C34.4934 19.8899 34.0767 18.8215 33.33 18C34.0767 17.1785 34.4934 16.1101 34.5 15V12ZM7.5 25.5H6C5.60218 25.5 5.22064 25.342 4.93934 25.0607C4.65804 24.7794 4.5 24.3978 4.5 24V21C4.5 20.6022 4.65804 20.2206 4.93934 19.9393C5.22064 19.658 5.60218 19.5 6 19.5H7.5C7.50662 20.6101 7.92332 21.6785 8.67 22.5C7.92332 23.3215 7.50662 24.3899 7.5 25.5ZM7.5 16.5H6C5.60218 16.5 5.22064 16.342 4.93934 16.0607C4.65804 15.7794 4.5 15.3978 4.5 15V12C4.5 11.6022 4.65804 11.2206 4.93934 10.9393C5.22064 10.658 5.60218 10.5 6 10.5H7.5C7.50662 11.6101 7.92332 12.6785 8.67 13.5C7.92332 14.3215 7.50662 15.3899 7.5 16.5ZM25.5 28.5C25.5 28.8978 25.342 29.2794 25.0607 29.5607C24.7794 29.842 24.3978 30 24 30H12C11.6022 30 11.2206 29.842 10.9393 29.5607C10.658 29.2794 10.5 28.8978 10.5 28.5V25.5C10.5 25.1022 10.658 24.7206 10.9393 24.4393C11.2206 24.158 11.6022 24 12 24H24C24.3978 24 24.7794 24.158 25.0607 24.4393C25.342 24.7206 25.5 25.1022 25.5 25.5V28.5ZM25.5 19.5C25.5 19.8978 25.342 20.2794 25.0607 20.5607C24.7794 20.842 24.3978 21 24 21H12C11.6022 21 11.2206 20.842 10.9393 20.5607C10.658 20.2794 10.5 19.8978 10.5 19.5V16.5C10.5 16.1022 10.658 15.7206 10.9393 15.4393C11.2206 15.158 11.6022 15 12 15H24C24.3978 15 24.7794 15.158 25.0607 15.4393C25.342 15.7206 25.5 16.1022 25.5 16.5V19.5ZM25.5 10.5C25.5 10.8978 25.342 11.2794 25.0607 11.5607C24.7794 11.842 24.3978 12 24 12H12C11.6022 12 11.2206 11.842 10.9393 11.5607C10.658 11.2794 10.5 10.8978 10.5 10.5V7.5C10.5 7.10218 10.658 6.72064 10.9393 6.43934C11.2206 6.15804 11.6022 6 12 6H24C24.3978 6 24.7794 6.15804 25.0607 6.43934C25.342 6.72064 25.5 7.10218 25.5 7.5V10.5ZM31.5 24C31.5 24.3978 31.342 24.7794 31.0607 25.0607C30.7794 25.342 30.3978 25.5 30 25.5H28.5C28.4934 24.3899 28.0767 23.3215 27.33 22.5C28.0767 21.6785 28.4934 20.6101 28.5 19.5H30C30.3978 19.5 30.7794 19.658 31.0607 19.9393C31.342 20.2206 31.5 20.6022 31.5 21V24ZM31.5 15C31.5 15.3978 31.342 15.7794 31.0607 16.0607C30.7794 16.342 30.3978 16.5 30 16.5H28.5C28.4934 15.3899 28.0767 14.3215 27.33 13.5C28.0767 12.6785 28.4934 11.6101 28.5 10.5H30C30.3978 10.5 30.7794 10.658 31.0607 10.9393C31.342 11.2206 31.5 11.6022 31.5 12V15ZM22.5 7.5C22.2033 7.5 21.9133 7.58797 21.6666 7.7528C21.42 7.91762 21.2277 8.15189 21.1142 8.42597C21.0006 8.70006 20.9709 9.00166 21.0288 9.29264C21.0867 9.58361 21.2296 9.85088 21.4393 10.0607C21.6491 10.2704 21.9164 10.4133 22.2074 10.4712C22.4983 10.5291 22.7999 10.4994 23.074 10.3858C23.3481 10.2723 23.5824 10.08 23.7472 9.83335C23.912 9.58668 24 9.29667 24 9C24 8.60218 23.842 8.22064 23.5607 7.93934C23.2794 7.65804 22.8978 7.5 22.5 7.5ZM16.5 7.5H13.5C13.1022 7.5 12.7206 7.65804 12.4393 7.93934C12.158 8.22064 12 8.60218 12 9C12 9.39782 12.158 9.77936 12.4393 10.0607C12.7206 10.342 13.1022 10.5 13.5 10.5H16.5C16.8978 10.5 17.2794 10.342 17.5607 10.0607C17.842 9.77936 18 9.39782 18 9C18 8.60218 17.842 8.22064 17.5607 7.93934C17.2794 7.65804 16.8978 7.5 16.5 7.5Z" fill="black"/>
</svg>
