<svg width="36" height="36" viewBox="0 0 36 36" fill="none" xmlns="http://www.w3.org/2000/svg">
<path d="M18 13.5C17.11 13.5 16.24 13.7639 15.4999 14.2584C14.7599 14.7529 14.1831 15.4557 13.8425 16.2779C13.5019 17.1002 13.4128 18.005 13.5865 18.8779C13.7601 19.7508 14.1887 20.5526 14.818 21.182C15.4474 21.8113 16.2492 22.2399 17.1221 22.4135C17.995 22.5872 18.8998 22.4981 19.7221 22.1575C20.5443 21.8169 21.2471 21.2401 21.7416 20.5001C22.2361 19.76 22.5 18.89 22.5 18C22.5 16.8065 22.0259 15.6619 21.182 14.818C20.3381 13.9741 19.1935 13.5 18 13.5ZM18 19.5C17.7033 19.5 17.4133 19.412 17.1666 19.2472C16.92 19.0824 16.7277 18.8481 16.6142 18.574C16.5006 18.2999 16.4709 17.9983 16.5288 17.7074C16.5867 17.4164 16.7296 17.1491 16.9393 16.9393C17.1491 16.7296 17.4164 16.5867 17.7074 16.5288C17.9983 16.4709 18.2999 16.5006 18.574 16.6142C18.8481 16.7277 19.0824 16.92 19.2472 17.1666C19.412 17.4133 19.5 17.7033 19.5 18C19.5 18.3978 19.342 18.7794 19.0607 19.0607C18.7794 19.342 18.3978 19.5 18 19.5ZM31.5 16.5H29.895C29.5602 13.86 28.3574 11.4061 26.4756 9.52438C24.5939 7.64264 22.14 6.43979 19.5 6.105V4.5C19.5 4.10218 19.342 3.72064 19.0607 3.43934C18.7794 3.15804 18.3978 3 18 3C17.6022 3 17.2206 3.15804 16.9393 3.43934C16.658 3.72064 16.5 4.10218 16.5 4.5V6.105C13.86 6.43979 11.4061 7.64264 9.52438 9.52438C7.64264 11.4061 6.43979 13.86 6.105 16.5H4.5C4.10218 16.5 3.72064 16.658 3.43934 16.9393C3.15804 17.2206 3 17.6022 3 18C3 18.3978 3.15804 18.7794 3.43934 19.0607C3.72064 19.342 4.10218 19.5 4.5 19.5H6.105C6.43979 22.14 7.64264 24.5939 9.52438 26.4756C11.4061 28.3574 13.86 29.5602 16.5 29.895V31.5C16.5 31.8978 16.658 32.2794 16.9393 32.5607C17.2206 32.842 17.6022 33 18 33C18.3978 33 18.7794 32.842 19.0607 32.5607C19.342 32.2794 19.5 31.8978 19.5 31.5V29.895C22.14 29.5602 24.5939 28.3574 26.4756 26.4756C28.3574 24.5939 29.5602 22.14 29.895 19.5H31.5C31.8978 19.5 32.2794 19.342 32.5607 19.0607C32.842 18.7794 33 18.3978 33 18C33 17.6022 32.842 17.2206 32.5607 16.9393C32.2794 16.658 31.8978 16.5 31.5 16.5ZM18 27C16.22 27 14.4799 26.4722 12.9999 25.4832C11.5198 24.4943 10.3663 23.0887 9.68508 21.4442C9.0039 19.7996 8.82567 17.99 9.17293 16.2442C9.5202 14.4984 10.3774 12.8947 11.636 11.636C12.8947 10.3774 14.4984 9.5202 16.2442 9.17293C17.99 8.82567 19.7996 9.0039 21.4442 9.68508C23.0887 10.3663 24.4943 11.5198 25.4832 12.9999C26.4722 14.4799 27 16.22 27 18C27 20.3869 26.0518 22.6761 24.364 24.364C22.6761 26.0518 20.3869 27 18 27Z" fill="black"/>
</svg>
