<svg width="36" height="36" viewBox="0 0 36 36" fill="none" xmlns="http://www.w3.org/2000/svg">
<path d="M10.5 24C11.0967 24 11.669 23.7629 12.091 23.341C12.5129 22.919 12.75 22.3467 12.75 21.75C12.7573 21.6752 12.7573 21.5998 12.75 21.525L16.935 17.34H17.28H17.625L20.04 19.755C20.04 19.755 20.04 19.83 20.04 19.875C20.04 20.4717 20.2771 21.044 20.699 21.466C21.121 21.8879 21.6933 22.125 22.29 22.125C22.8867 22.125 23.459 21.8879 23.881 21.466C24.3029 21.044 24.54 20.4717 24.54 19.875V19.755L30 14.25C30.445 14.25 30.88 14.118 31.25 13.8708C31.62 13.6236 31.9084 13.2722 32.0787 12.861C32.249 12.4499 32.2936 11.9975 32.2068 11.561C32.12 11.1246 31.9057 10.7237 31.591 10.409C31.2763 10.0943 30.8754 9.88005 30.439 9.79323C30.0025 9.70642 29.5501 9.75097 29.139 9.92127C28.7278 10.0916 28.3764 10.38 28.1292 10.75C27.882 11.12 27.75 11.555 27.75 12C27.7427 12.0748 27.7427 12.1502 27.75 12.225L22.335 17.64H22.095L19.5 15C19.5 14.4033 19.2629 13.831 18.841 13.409C18.419 12.9871 17.8467 12.75 17.25 12.75C16.6533 12.75 16.081 12.9871 15.659 13.409C15.2371 13.831 15 14.4033 15 15L10.5 19.5C9.90326 19.5 9.33097 19.7371 8.90901 20.159C8.48705 20.581 8.25 21.1533 8.25 21.75C8.25 22.3467 8.48705 22.919 8.90901 23.341C9.33097 23.7629 9.90326 24 10.5 24V24ZM30.75 30H5.25V4.5C5.25 4.10218 5.09196 3.72064 4.81066 3.43934C4.52936 3.15804 4.14782 3 3.75 3C3.35218 3 2.97064 3.15804 2.68934 3.43934C2.40804 3.72064 2.25 4.10218 2.25 4.5V31.5C2.25 31.8978 2.40804 32.2794 2.68934 32.5607C2.97064 32.842 3.35218 33 3.75 33H30.75C31.1478 33 31.5294 32.842 31.8107 32.5607C32.092 32.2794 32.25 31.8978 32.25 31.5C32.25 31.1022 32.092 30.7206 31.8107 30.4393C31.5294 30.158 31.1478 30 30.75 30Z" fill="black"/>
</svg>
