<svg width="24" height="24" viewBox="0 0 24 24" fill="none" xmlns="http://www.w3.org/2000/svg">
<g id="Arrows / right arrow">
<path id="Vector" d="M14.83 11.2899L10.59 7.04995C10.497 6.95622 10.3864 6.88183 10.2646 6.83106C10.1427 6.78029 10.012 6.75415 9.88 6.75415C9.74799 6.75415 9.61729 6.78029 9.49543 6.83106C9.37357 6.88183 9.26297 6.95622 9.17 7.04995C8.98375 7.23731 8.87921 7.49076 8.87921 7.75495C8.87921 8.01913 8.98375 8.27259 9.17 8.45995L12.71 11.9999L9.17 15.5399C8.98375 15.7273 8.87921 15.9808 8.87921 16.2449C8.87921 16.5091 8.98375 16.7626 9.17 16.9499C9.26344 17.0426 9.37426 17.116 9.4961 17.1657C9.61794 17.2155 9.7484 17.2407 9.88 17.2399C10.0116 17.2407 10.1421 17.2155 10.2639 17.1657C10.3857 17.116 10.4966 17.0426 10.59 16.9499L14.83 12.7099C14.9237 12.617 14.9981 12.5064 15.0489 12.3845C15.0997 12.2627 15.1258 12.132 15.1258 11.9999C15.1258 11.8679 15.0997 11.7372 15.0489 11.6154C14.9981 11.4935 14.9237 11.3829 14.83 11.2899Z" fill="black"/>
</g>
</svg>
