<svg width="36" height="36" viewBox="0 0 36 36" fill="none" xmlns="http://www.w3.org/2000/svg">
<g id="User Interface / Approve">
<path id="Vector" d="M22.08 13.185L15.645 19.635L13.17 17.16C13.0355 17.003 12.8701 16.8754 12.684 16.7854C12.4979 16.6954 12.2952 16.6448 12.0886 16.6368C11.882 16.6288 11.676 16.6636 11.4835 16.739C11.291 16.8145 11.1162 16.9288 10.97 17.075C10.8238 17.2212 10.7095 17.396 10.6341 17.5885C10.5586 17.781 10.5238 17.987 10.5318 18.1936C10.5398 18.4002 10.5904 18.6029 10.6804 18.789C10.7705 18.9751 10.898 19.1405 11.055 19.275L14.58 22.815C14.7202 22.954 14.8864 23.064 15.0691 23.1387C15.2519 23.2133 15.4476 23.2511 15.645 23.25C16.0385 23.2483 16.4156 23.0921 16.695 22.815L24.195 15.315C24.3356 15.1756 24.4472 15.0097 24.5233 14.8269C24.5995 14.6441 24.6387 14.448 24.6387 14.25C24.6387 14.052 24.5995 13.8559 24.5233 13.6731C24.4472 13.4903 24.3356 13.3244 24.195 13.185C23.914 12.9056 23.5338 12.7488 23.1375 12.7488C22.7412 12.7488 22.3611 12.9056 22.08 13.185ZM18 3C15.0333 3 12.1332 3.87973 9.66645 5.52796C7.19972 7.17618 5.27713 9.51886 4.14181 12.2597C3.0065 15.0006 2.70945 18.0166 3.28823 20.9264C3.86701 23.8361 5.29562 26.5088 7.39341 28.6066C9.49119 30.7044 12.1639 32.133 15.0737 32.7118C17.9834 33.2906 20.9994 32.9935 23.7403 31.8582C26.4812 30.7229 28.8238 28.8003 30.4721 26.3336C32.1203 23.8668 33 20.9667 33 18C33 16.0302 32.612 14.0796 31.8582 12.2597C31.1044 10.4399 29.9995 8.78628 28.6066 7.3934C27.2137 6.00052 25.5601 4.89563 23.7403 4.14181C21.9204 3.38799 19.9698 3 18 3ZM18 30C15.6266 30 13.3066 29.2962 11.3332 27.9776C9.35977 26.6591 7.8217 24.7849 6.91345 22.5922C6.0052 20.3995 5.76756 17.9867 6.23058 15.6589C6.69361 13.3311 7.8365 11.1929 9.51473 9.51472C11.193 7.83649 13.3312 6.6936 15.6589 6.23058C17.9867 5.76755 20.3995 6.00519 22.5922 6.91345C24.7849 7.8217 26.6591 9.35977 27.9776 11.3332C29.2962 13.3065 30 15.6266 30 18C30 21.1826 28.7357 24.2348 26.4853 26.4853C24.2349 28.7357 21.1826 30 18 30Z" fill="black"/>
</g>
</svg>
