<svg width="24" height="24" viewBox="0 0 24 24" fill="none" xmlns="http://www.w3.org/2000/svg">
<path d="M18.9917 21.002H17.9917V19.335C17.9886 18.7627 17.8873 18.1953 17.6921 17.6573C17.6812 17.6279 17.6697 17.6007 17.6562 17.5727C17.4943 17.1312 17.2705 16.7148 16.9917 16.336L15.5918 14.4688C15.2034 13.9487 14.9929 13.3172 14.9917 12.668V11.6582C14.994 10.8631 15.3096 10.101 15.8701 9.53712L16.5273 8.87989C17.291 8.11214 17.7815 7.11499 17.9236 6.04151C17.9242 6.0276 17.9316 6.016 17.9316 6.00196L17.9288 5.98823C17.9636 5.77531 17.9846 5.56037 17.9917 5.34474V3.00201H18.9917C19.2569 3.00201 19.5113 2.89666 19.6988 2.70912C19.8864 2.52158 19.9917 2.26723 19.9917 2.00201C19.9917 1.7368 19.8864 1.48244 19.6988 1.29491C19.5113 1.10737 19.2569 1.00201 18.9917 1.00201H4.99171C4.72649 1.00201 4.47214 1.10737 4.2846 1.29491C4.09707 1.48244 3.99171 1.7368 3.99171 2.00201C3.99171 2.26723 4.09707 2.52158 4.2846 2.70912C4.47214 2.89666 4.72649 3.00201 4.99171 3.00201H5.99171V5.34474C5.99881 5.56037 6.01981 5.77531 6.05458 5.98823L6.05176 6.00201C6.05176 6.01601 6.0592 6.02765 6.05976 6.04156C6.20192 7.11504 6.69245 8.11219 7.45606 8.87994L8.11329 9.53717C8.67378 10.1011 8.9894 10.8632 8.9917 11.6582V12.668C8.9904 13.3171 8.78015 13.9485 8.39209 14.4688L6.99121 16.336C6.71245 16.7149 6.48878 17.1314 6.32684 17.5731C6.31354 17.6008 6.30212 17.6278 6.29132 17.6568C6.09618 18.195 5.99483 18.7626 5.9917 19.335V21.002H4.9917C4.72648 21.002 4.47213 21.1074 4.28459 21.2949C4.09706 21.4824 3.9917 21.7368 3.9917 22.002C3.9917 22.2672 4.09706 22.5216 4.28459 22.7091C4.47213 22.8967 4.72648 23.002 4.9917 23.002H18.9917C19.2569 23.002 19.5113 22.8967 19.6988 22.7091C19.8863 22.5216 19.9917 22.2672 19.9917 22.002C19.9917 21.7368 19.8863 21.4824 19.6988 21.2949C19.5113 21.1074 19.2569 21.002 18.9917 21.002ZM7.9917 5.00201V3.00201H15.9917V5.00201H7.9917ZM8.87012 7.46588C8.72921 7.32433 8.60294 7.16892 8.49323 7.00201H15.4902C15.3805 7.16891 15.2542 7.32432 15.1133 7.46588L14.456 8.12311C13.676 8.89856 13.1758 9.91128 13.0342 11.002H10.9492C10.8075 9.91125 10.3074 8.89849 9.52734 8.12301L8.87012 7.46588ZM9.99219 15.668C10.5708 14.8927 10.9139 13.9671 10.9805 13.002H13.0029C13.0694 13.9672 13.4127 14.8928 13.9917 15.668L14.9918 17.002H8.99133L9.99219 15.668ZM15.9917 21.002H7.9917V19.335C7.99448 19.2236 8.00357 19.1124 8.01892 19.002H15.9645C15.9798 19.1124 15.9889 19.2236 15.9917 19.335V21.002Z" fill="black"/>
</svg>
