<svg width="34" height="34" viewBox="0 0 34 34" fill="none" xmlns="http://www.w3.org/2000/svg">
<path d="M26.9166 8.5H22.6666V7.08333C22.6666 6.33189 22.3681 5.61122 21.8368 5.07986C21.3054 4.54851 20.5848 4.25 19.8333 4.25H14.1666C13.4152 4.25 12.6945 4.54851 12.1632 5.07986C11.6318 5.61122 11.3333 6.33189 11.3333 7.08333V8.5H7.08331C5.95614 8.5 4.87514 8.94777 4.07811 9.7448C3.28108 10.5418 2.83331 11.6228 2.83331 12.75V25.5C2.83331 26.6272 3.28108 27.7082 4.07811 28.5052C4.87514 29.3022 5.95614 29.75 7.08331 29.75H26.9166C28.0438 29.75 29.1248 29.3022 29.9218 28.5052C30.7189 27.7082 31.1666 26.6272 31.1666 25.5V12.75C31.1666 11.6228 30.7189 10.5418 29.9218 9.7448C29.1248 8.94777 28.0438 8.5 26.9166 8.5ZM14.1666 7.08333H19.8333V8.5H14.1666V7.08333ZM28.3333 25.5C28.3333 25.8757 28.1841 26.2361 27.9184 26.5017C27.6527 26.7674 27.2924 26.9167 26.9166 26.9167H7.08331C6.70759 26.9167 6.34726 26.7674 6.08158 26.5017C5.8159 26.2361 5.66665 25.8757 5.66665 25.5V18.4167H11.3333V19.8333C11.3333 20.2091 11.4826 20.5694 11.7482 20.8351C12.0139 21.1007 12.3743 21.25 12.75 21.25C13.1257 21.25 13.486 21.1007 13.7517 20.8351C14.0174 20.5694 14.1666 20.2091 14.1666 19.8333V18.4167H19.8333V19.8333C19.8333 20.2091 19.9826 20.5694 20.2482 20.8351C20.5139 21.1007 20.8743 21.25 21.25 21.25C21.6257 21.25 21.986 21.1007 22.2517 20.8351C22.5174 20.5694 22.6666 20.2091 22.6666 19.8333V18.4167H28.3333V25.5ZM28.3333 15.5833H5.66665V12.75C5.66665 12.3743 5.8159 12.0139 6.08158 11.7483C6.34726 11.4826 6.70759 11.3333 7.08331 11.3333H26.9166C27.2924 11.3333 27.6527 11.4826 27.9184 11.7483C28.1841 12.0139 28.3333 12.3743 28.3333 12.75V15.5833Z" fill="black"/>
</svg>
