<svg width="23" height="14" viewBox="0 0 23 14" fill="none" xmlns="http://www.w3.org/2000/svg">
<path d="M21.7603 1.21852L11.4578 11.433L1.24411 1.13047C0.961408 0.844855 0.500423 0.843399 0.215172 1.1261C-0.0700786 1.40881 -0.0718975 1.86979 0.210806 2.15468L10.8328 12.8691C10.9656 13.0029 11.1366 13.0739 11.3101 13.0834C11.3607 13.0863 11.4113 13.083 11.4611 13.0757C11.4808 13.0786 11.4997 13.0834 11.5193 13.0837C11.7173 13.0943 11.9192 13.0248 12.0705 12.8741L22.7846 2.25146C23.0702 1.96876 23.072 1.50814 22.7889 1.22252C22.5059 0.936906 22.0452 0.93545 21.7603 1.21852Z" fill="#5A5A5A"/>
</svg>
