<svg width="22" height="22" viewBox="0 0 22 22" fill="none" xmlns="http://www.w3.org/2000/svg">
<path d="M16.0802 7.6162C17.3256 7.6162 18.3352 6.6066 18.3352 5.3612C18.3352 4.1158 17.3256 3.1062 16.0802 3.1062C14.8348 3.1062 13.8252 4.1158 13.8252 5.3612C13.8252 6.6066 14.8348 7.6162 16.0802 7.6162Z" stroke="#5A5A5A" stroke-width="1.5" stroke-miterlimit="10" stroke-linecap="round" stroke-linejoin="round"/>
<path d="M5.92493 7.6162C7.17033 7.6162 8.17992 6.6066 8.17992 5.3612C8.17992 4.1158 7.17033 3.1062 5.92493 3.1062C4.67953 3.1062 3.66992 4.1158 3.66992 5.3612C3.66992 6.6066 4.67953 7.6162 5.92493 7.6162Z" stroke="#5A5A5A" stroke-width="1.5" stroke-miterlimit="10" stroke-linecap="round" stroke-linejoin="round"/>
<path d="M16.0802 18.8927C17.3256 18.8927 18.3352 17.8831 18.3352 16.6377C18.3352 15.3923 17.3256 14.3827 16.0802 14.3827C14.8348 14.3827 13.8252 15.3923 13.8252 16.6377C13.8252 17.8831 14.8348 18.8927 16.0802 18.8927Z" stroke="#5A5A5A" stroke-width="1.5" stroke-miterlimit="10" stroke-linecap="round" stroke-linejoin="round"/>
<path d="M5.92493 18.8927C7.17033 18.8927 8.17992 17.8831 8.17992 16.6377C8.17992 15.3923 7.17033 14.3827 5.92493 14.3827C4.67953 14.3827 3.66992 15.3923 3.66992 16.6377C3.66992 17.8831 4.67953 18.8927 5.92493 18.8927Z" stroke="#5A5A5A" stroke-width="1.5" stroke-miterlimit="10" stroke-linecap="round" stroke-linejoin="round"/>
</svg>
