<svg width="22" height="23" viewBox="0 0 22 23" fill="none" xmlns="http://www.w3.org/2000/svg">
<path d="M11.917 8.75H6.41699" stroke="white" stroke-width="1.5" stroke-linecap="round" stroke-linejoin="round"/>
<path d="M20.1665 10.5558V12.4442C20.1665 12.9484 19.7632 13.3608 19.2499 13.3792H17.4532C16.4632 13.3792 15.5557 12.655 15.4732 11.665C15.4182 11.0875 15.6382 10.5467 16.0232 10.1708C16.3624 9.82249 16.8299 9.62085 17.3432 9.62085H19.2499C19.7632 9.63918 20.1665 10.0516 20.1665 10.5558Z" stroke="white" stroke-width="1.5" stroke-linecap="round" stroke-linejoin="round"/>
<path d="M16.023 10.1709C15.638 10.5467 15.418 11.0875 15.473 11.665C15.5555 12.655 16.463 13.3792 17.453 13.3792H19.2497V14.7084C19.2497 17.4584 17.4163 19.2917 14.6663 19.2917H6.41634C3.66634 19.2917 1.83301 17.4584 1.83301 14.7084V8.29171C1.83301 5.79837 3.33634 4.05671 5.67384 3.76337C5.91218 3.72671 6.15967 3.70837 6.41634 3.70837H14.6663C14.9047 3.70837 15.1338 3.71753 15.3538 3.7542C17.7188 4.0292 19.2497 5.78004 19.2497 8.29171V9.62088H17.343C16.8297 9.62088 16.3622 9.82253 16.023 10.1709Z" stroke="white" stroke-width="1.5" stroke-linecap="round" stroke-linejoin="round"/>
</svg>
