<svg width="1228" height="80" viewBox="0 0 1228 80" fill="none" xmlns="http://www.w3.org/2000/svg">
<g clip-path="url(#clip0_8_1819)">
<rect x="0.5" y="0.5" width="1227" height="78" stroke="black"/>
<g clip-path="url(#clip1_8_1819)">
<rect x="12" y="17.5" width="44" height="44" rx="22" fill="#D6E1E6"/>
<rect x="12" y="17.5" width="44" height="44" rx="22" fill="#EAEEF4"/>
</g>
<g clip-path="url(#clip2_8_1819)">
<path d="M88.733 33.8636V35.892H83.4716V45.5H81.0114V33.8636H88.733ZM92.9744 45.6705C92.0767 45.6705 91.304 45.4886 90.6562 45.125C90.0123 44.7576 89.5161 44.2386 89.1676 43.5682C88.8191 42.8939 88.6449 42.0966 88.6449 41.1761C88.6449 40.2784 88.8191 39.4905 89.1676 38.8125C89.5161 38.1345 90.0066 37.6061 90.6392 37.2273C91.2756 36.8485 92.0218 36.6591 92.8778 36.6591C93.4536 36.6591 93.9896 36.7519 94.4858 36.9375C94.9858 37.1193 95.4214 37.3939 95.7926 37.7614C96.1676 38.1288 96.4593 38.5909 96.6676 39.1477C96.8759 39.7008 96.9801 40.3485 96.9801 41.0909V41.7557H89.6108V40.2557H94.7017C94.7017 39.9072 94.6259 39.5985 94.4744 39.3295C94.3229 39.0606 94.1127 38.8504 93.8438 38.6989C93.5786 38.5436 93.2699 38.4659 92.9176 38.4659C92.5502 38.4659 92.2244 38.5511 91.9403 38.7216C91.66 38.8883 91.4403 39.1136 91.2812 39.3977C91.1222 39.678 91.0407 39.9905 91.0369 40.3352V41.7614C91.0369 42.1932 91.1165 42.5663 91.2756 42.8807C91.4384 43.1951 91.6676 43.4375 91.9631 43.608C92.2585 43.7784 92.6089 43.8636 93.0142 43.8636C93.2831 43.8636 93.5294 43.8258 93.7528 43.75C93.9763 43.6742 94.1676 43.5606 94.3267 43.4091C94.4858 43.2576 94.607 43.072 94.6903 42.8523L96.929 43C96.8153 43.5379 96.5824 44.0076 96.2301 44.4091C95.8816 44.8068 95.4309 45.1174 94.8778 45.3409C94.3286 45.5606 93.6941 45.6705 92.9744 45.6705ZM104.537 36.7727V38.6761H100.912V45.5H98.5597V36.7727H104.537ZM108.189 45.6648C107.632 45.6648 107.136 45.5682 106.7 45.375C106.265 45.178 105.92 44.8883 105.666 44.5057C105.416 44.1193 105.291 43.6383 105.291 43.0625C105.291 42.5777 105.38 42.1705 105.558 41.8409C105.736 41.5114 105.979 41.2462 106.286 41.0455C106.592 40.8447 106.941 40.6932 107.331 40.5909C107.725 40.4886 108.138 40.4167 108.57 40.375C109.077 40.322 109.486 40.2727 109.797 40.2273C110.107 40.178 110.333 40.1061 110.473 40.0114C110.613 39.9167 110.683 39.7765 110.683 39.5909V39.5568C110.683 39.197 110.57 38.9186 110.342 38.7216C110.119 38.5246 109.801 38.4261 109.388 38.4261C108.952 38.4261 108.606 38.5227 108.348 38.7159C108.09 38.9053 107.92 39.1439 107.837 39.4318L105.598 39.25C105.712 38.7197 105.935 38.2614 106.268 37.875C106.602 37.4848 107.032 37.1856 107.558 36.9773C108.089 36.7652 108.702 36.6591 109.399 36.6591C109.884 36.6591 110.348 36.7159 110.791 36.8295C111.238 36.9432 111.634 37.1193 111.979 37.358C112.327 37.5966 112.602 37.9034 112.803 38.2784C113.003 38.6496 113.104 39.0947 113.104 39.6136V45.5H110.808V44.2898H110.74C110.6 44.5625 110.412 44.803 110.178 45.0114C109.943 45.2159 109.661 45.3769 109.331 45.4943C109.001 45.608 108.621 45.6648 108.189 45.6648ZM108.882 43.9943C109.238 43.9943 109.553 43.9242 109.825 43.7841C110.098 43.6402 110.312 43.447 110.467 43.2045C110.623 42.9621 110.7 42.6875 110.7 42.3807V41.4545C110.625 41.5038 110.52 41.5492 110.388 41.5909C110.259 41.6288 110.113 41.6648 109.95 41.6989C109.787 41.7292 109.625 41.7576 109.462 41.7841C109.299 41.8068 109.151 41.8277 109.018 41.8466C108.734 41.8883 108.486 41.9545 108.274 42.0455C108.062 42.1364 107.897 42.2595 107.78 42.4148C107.662 42.5663 107.604 42.7557 107.604 42.983C107.604 43.3125 107.723 43.5644 107.962 43.7386C108.204 43.9091 108.511 43.9943 108.882 43.9943ZM120.141 42.8239L122.504 36.7727H124.345L120.942 45.5H119.334L116.01 36.7727H117.845L120.141 42.8239ZM117.294 36.7727V45.5H114.982V36.7727H117.294ZM123.107 45.5V36.7727H125.391V45.5H123.107ZM132.376 45.5V38.6705H130.74C130.297 38.6705 129.96 38.7727 129.729 38.9773C129.498 39.1818 129.384 39.4242 129.388 39.7045C129.384 39.9886 129.494 40.2292 129.717 40.4261C129.945 40.6193 130.278 40.7159 130.717 40.7159H133.183V42.3523H130.717C129.971 42.3523 129.325 42.2386 128.78 42.0114C128.234 41.7841 127.814 41.4678 127.518 41.0625C127.223 40.6534 127.077 40.178 127.081 39.6364C127.077 39.0682 127.223 38.5701 127.518 38.142C127.814 37.7102 128.236 37.375 128.786 37.1364C129.339 36.8939 129.99 36.7727 130.74 36.7727H134.632V45.5H132.376ZM126.831 45.5L129.257 40.9545H131.57L129.149 45.5H126.831ZM142.587 40.1705V42.0739H138.03V40.1705H142.587ZM138.825 36.7727V45.5H136.513V36.7727H138.825ZM144.104 36.7727V45.5H141.808V36.7727H144.104ZM149.099 45.5V43.5227L149.429 43.4943C149.853 43.4602 150.196 43.2992 150.457 43.0114C150.719 42.7197 150.914 42.2557 151.043 41.6193C151.175 40.9792 151.26 40.1193 151.298 39.0398L151.491 33.8636H159.389V45.5H156.997V35.8352H153.776L153.594 39.8864C153.533 41.1894 153.378 42.2538 153.128 43.0795C152.882 43.9053 152.488 44.5152 151.946 44.9091C151.408 45.303 150.671 45.5 149.736 45.5H149.099ZM163.685 42.3068L166.827 36.7727H169.213V45.5H166.906V39.9489L163.776 45.5H161.372V36.7727H163.685V42.3068ZM171.153 45.5V36.7727H178.784V45.5H176.472V38.6761H173.438V45.5H171.153ZM183.205 45.6648C182.648 45.6648 182.152 45.5682 181.716 45.375C181.28 45.178 180.936 44.8883 180.682 44.5057C180.432 44.1193 180.307 43.6383 180.307 43.0625C180.307 42.5777 180.396 42.1705 180.574 41.8409C180.752 41.5114 180.994 41.2462 181.301 41.0455C181.608 40.8447 181.956 40.6932 182.347 40.5909C182.741 40.4886 183.153 40.4167 183.585 40.375C184.093 40.322 184.502 40.2727 184.812 40.2273C185.123 40.178 185.348 40.1061 185.489 40.0114C185.629 39.9167 185.699 39.7765 185.699 39.5909V39.5568C185.699 39.197 185.585 38.9186 185.358 38.7216C185.134 38.5246 184.816 38.4261 184.403 38.4261C183.968 38.4261 183.621 38.5227 183.364 38.7159C183.106 38.9053 182.936 39.1439 182.852 39.4318L180.614 39.25C180.727 38.7197 180.951 38.2614 181.284 37.875C181.617 37.4848 182.047 37.1856 182.574 36.9773C183.104 36.7652 183.718 36.6591 184.415 36.6591C184.9 36.6591 185.364 36.7159 185.807 36.8295C186.254 36.9432 186.65 37.1193 186.994 37.358C187.343 37.5966 187.617 37.9034 187.818 38.2784C188.019 38.6496 188.119 39.0947 188.119 39.6136V45.5H185.824V44.2898H185.756C185.616 44.5625 185.428 44.803 185.193 45.0114C184.958 45.2159 184.676 45.3769 184.347 45.4943C184.017 45.608 183.636 45.6648 183.205 45.6648ZM183.898 43.9943C184.254 43.9943 184.568 43.9242 184.841 43.7841C185.114 43.6402 185.328 43.447 185.483 43.2045C185.638 42.9621 185.716 42.6875 185.716 42.3807V41.4545C185.64 41.5038 185.536 41.5492 185.403 41.5909C185.275 41.6288 185.129 41.6648 184.966 41.6989C184.803 41.7292 184.64 41.7576 184.477 41.7841C184.314 41.8068 184.167 41.8277 184.034 41.8466C183.75 41.8883 183.502 41.9545 183.29 42.0455C183.078 42.1364 182.913 42.2595 182.795 42.4148C182.678 42.5663 182.619 42.7557 182.619 42.983C182.619 43.3125 182.739 43.5644 182.977 43.7386C183.22 43.9091 183.527 43.9943 183.898 43.9943ZM189.997 48.7727V36.7727H192.384V38.2386H192.491C192.598 38.0038 192.751 37.7652 192.952 37.5227C193.156 37.2765 193.421 37.072 193.747 36.9091C194.077 36.7424 194.486 36.6591 194.974 36.6591C195.611 36.6591 196.198 36.8258 196.736 37.1591C197.274 37.4886 197.704 37.9867 198.026 38.6534C198.348 39.3163 198.509 40.1477 198.509 41.1477C198.509 42.1212 198.351 42.9432 198.037 43.6136C197.726 44.2803 197.302 44.786 196.764 45.1307C196.23 45.4716 195.632 45.642 194.969 45.642C194.499 45.642 194.099 45.5644 193.77 45.4091C193.444 45.2538 193.177 45.0587 192.969 44.8239C192.76 44.5852 192.601 44.3447 192.491 44.1023H192.418V48.7727H189.997ZM192.366 41.1364C192.366 41.6553 192.438 42.108 192.582 42.4943C192.726 42.8807 192.935 43.1818 193.207 43.3977C193.48 43.6098 193.812 43.7159 194.202 43.7159C194.596 43.7159 194.929 43.608 195.202 43.392C195.474 43.1723 195.681 42.8693 195.821 42.483C195.965 42.0928 196.037 41.6439 196.037 41.1364C196.037 40.6326 195.967 40.1894 195.827 39.8068C195.687 39.4242 195.48 39.125 195.207 38.9091C194.935 38.6932 194.599 38.5852 194.202 38.5852C193.808 38.5852 193.474 38.6894 193.202 38.8977C192.933 39.1061 192.726 39.4015 192.582 39.7841C192.438 40.1667 192.366 40.6174 192.366 41.1364ZM202.435 42.3068L205.577 36.7727H207.963V45.5H205.656V39.9489L202.526 45.5H200.122V36.7727H202.435V42.3068ZM209.027 38.6761V36.7727H216.936V38.6761H214.124V45.5H211.817V38.6761H209.027ZM224.158 45.5H221.521L225.538 33.8636H228.709L232.72 45.5H230.084L227.169 36.5227H227.078L224.158 45.5ZM223.993 40.9261H230.22V42.8466H223.993V40.9261ZM234.075 45.5V36.7727H236.496V40.1591H237.178L239.553 36.7727H242.393L239.308 41.1023L242.428 45.5H239.553L237.399 42.4034H236.496V45.5H234.075ZM247.034 45.6705C246.152 45.6705 245.388 45.483 244.744 45.108C244.104 44.7292 243.61 44.2027 243.261 43.5284C242.913 42.8504 242.739 42.0644 242.739 41.1705C242.739 40.2689 242.913 39.4811 243.261 38.8068C243.61 38.1288 244.104 37.6023 244.744 37.2273C245.388 36.8485 246.152 36.6591 247.034 36.6591C247.917 36.6591 248.678 36.8485 249.318 37.2273C249.962 37.6023 250.458 38.1288 250.807 38.8068C251.155 39.4811 251.33 40.2689 251.33 41.1705C251.33 42.0644 251.155 42.8504 250.807 43.5284C250.458 44.2027 249.962 44.7292 249.318 45.108C248.678 45.483 247.917 45.6705 247.034 45.6705ZM247.045 43.7955C247.447 43.7955 247.782 43.6818 248.051 43.4545C248.32 43.2235 248.523 42.9091 248.659 42.5114C248.799 42.1136 248.869 41.661 248.869 41.1534C248.869 40.6458 248.799 40.1932 248.659 39.7955C248.523 39.3977 248.32 39.0833 248.051 38.8523C247.782 38.6212 247.447 38.5057 247.045 38.5057C246.64 38.5057 246.299 38.6212 246.023 38.8523C245.75 39.0833 245.544 39.3977 245.403 39.7955C245.267 40.1932 245.199 40.6458 245.199 41.1534C245.199 41.661 245.267 42.1136 245.403 42.5114C245.544 42.9091 245.75 43.2235 246.023 43.4545C246.299 43.6818 246.64 43.7955 247.045 43.7955ZM252.903 45.5V36.7727H260.534V45.5H258.222V38.6761H255.188V45.5H252.903ZM266.409 45.6705C265.527 45.6705 264.763 45.483 264.119 45.108C263.479 44.7292 262.985 44.2027 262.636 43.5284C262.288 42.8504 262.114 42.0644 262.114 41.1705C262.114 40.2689 262.288 39.4811 262.636 38.8068C262.985 38.1288 263.479 37.6023 264.119 37.2273C264.763 36.8485 265.527 36.6591 266.409 36.6591C267.292 36.6591 268.053 36.8485 268.693 37.2273C269.337 37.6023 269.833 38.1288 270.182 38.8068C270.53 39.4811 270.705 40.2689 270.705 41.1705C270.705 42.0644 270.53 42.8504 270.182 43.5284C269.833 44.2027 269.337 44.7292 268.693 45.108C268.053 45.483 267.292 45.6705 266.409 45.6705ZM266.42 43.7955C266.822 43.7955 267.157 43.6818 267.426 43.4545C267.695 43.2235 267.898 42.9091 268.034 42.5114C268.174 42.1136 268.244 41.661 268.244 41.1534C268.244 40.6458 268.174 40.1932 268.034 39.7955C267.898 39.3977 267.695 39.0833 267.426 38.8523C267.157 38.6212 266.822 38.5057 266.42 38.5057C266.015 38.5057 265.674 38.6212 265.398 38.8523C265.125 39.0833 264.919 39.3977 264.778 39.7955C264.642 40.1932 264.574 40.6458 264.574 41.1534C264.574 41.661 264.642 42.1136 264.778 42.5114C264.919 42.9091 265.125 43.2235 265.398 43.4545C265.674 43.6818 266.015 43.7955 266.42 43.7955ZM272.278 45.5V36.7727H276C277.076 36.7727 277.926 36.9773 278.551 37.3864C279.176 37.7955 279.489 38.3769 279.489 39.1307C279.489 39.6042 279.313 39.9981 278.96 40.3125C278.608 40.6269 278.119 40.839 277.494 40.9489C278.017 40.9867 278.462 41.1061 278.83 41.3068C279.201 41.5038 279.483 41.7595 279.676 42.0739C279.873 42.3883 279.972 42.7367 279.972 43.1193C279.972 43.6155 279.839 44.0417 279.574 44.3977C279.313 44.7538 278.928 45.0265 278.42 45.2159C277.917 45.4053 277.301 45.5 276.574 45.5H272.278ZM274.534 43.6875H276.574C276.911 43.6875 277.174 43.608 277.364 43.4489C277.557 43.286 277.653 43.0644 277.653 42.7841C277.653 42.4735 277.557 42.2292 277.364 42.0511C277.174 41.8731 276.911 41.7841 276.574 41.7841H274.534V43.6875ZM274.534 40.3636H276.051C276.294 40.3636 276.5 40.3295 276.67 40.2614C276.845 40.1894 276.977 40.0871 277.068 39.9545C277.163 39.822 277.21 39.6648 277.21 39.483C277.21 39.214 277.102 39.0038 276.886 38.8523C276.67 38.7008 276.375 38.625 276 38.625H274.534V40.3636ZM283.81 42.3068L286.952 36.7727H289.338V45.5H287.031V39.9489L283.901 45.5H281.497V36.7727H283.81V42.3068ZM298.852 36.7727V45.5H296.557V36.7727H298.852ZM297.733 40.6023V42.5114C297.547 42.5947 297.316 42.6742 297.04 42.75C296.763 42.822 296.473 42.8807 296.17 42.9261C295.867 42.9716 295.583 42.9943 295.318 42.9943C294.064 42.9943 293.078 42.7367 292.358 42.2216C291.638 41.7027 291.278 40.875 291.278 39.7386V36.7614H293.562V39.7386C293.562 40.0758 293.619 40.3428 293.733 40.5398C293.85 40.7367 294.036 40.8788 294.29 40.9659C294.547 41.0492 294.89 41.0909 295.318 41.0909C295.716 41.0909 296.106 41.0492 296.489 40.9659C296.871 40.8826 297.286 40.7614 297.733 40.6023Z" fill="black"/>
</g>
<path d="M658.938 41.2898H652.739V39.3182H658.869C659.331 39.3182 659.71 39.25 660.006 39.1136C660.301 38.9773 660.519 38.7841 660.659 38.5341C660.799 38.2841 660.869 37.9886 660.869 37.6477C660.869 37.3144 660.799 37.0133 660.659 36.7443C660.519 36.4754 660.305 36.2614 660.017 36.1023C659.729 35.9432 659.369 35.8636 658.938 35.8636H656.835V45.5H654.392V33.8636H658.938C659.858 33.8636 660.646 34.0284 661.301 34.358C661.96 34.6837 662.464 35.1307 662.812 35.6989C663.161 36.2633 663.333 36.9034 663.33 37.6193C663.333 38.3693 663.157 39.0189 662.801 39.5682C662.445 40.1174 661.938 40.5417 661.278 40.8409C660.619 41.1402 659.839 41.2898 658.938 41.2898ZM659.375 42.0398V44.0114H652.739V42.0398H659.375ZM664.865 45.5V43.7273L669.007 39.892C669.359 39.5511 669.655 39.2443 669.893 38.9716C670.136 38.6989 670.32 38.4318 670.445 38.1705C670.57 37.9053 670.632 37.6193 670.632 37.3125C670.632 36.9716 670.554 36.678 670.399 36.4318C670.244 36.1818 670.032 35.9905 669.763 35.858C669.494 35.7216 669.189 35.6534 668.848 35.6534C668.492 35.6534 668.181 35.7254 667.916 35.8693C667.651 36.0133 667.446 36.2197 667.303 36.4886C667.159 36.7576 667.087 37.0777 667.087 37.4489H664.751C664.751 36.6875 664.924 36.0265 665.268 35.4659C665.613 34.9053 666.096 34.4716 666.717 34.1648C667.339 33.858 668.054 33.7045 668.865 33.7045C669.698 33.7045 670.424 33.8523 671.041 34.1477C671.662 34.4394 672.145 34.8447 672.49 35.3636C672.835 35.8826 673.007 36.4773 673.007 37.1477C673.007 37.5871 672.92 38.0208 672.746 38.4489C672.575 38.8769 672.27 39.3523 671.831 39.875C671.392 40.3939 670.772 41.017 669.973 41.7443L668.274 43.4091V43.4886H673.161V45.5H664.865ZM677.597 43.9091L677.534 44.5341C677.485 45.0341 677.39 45.5322 677.25 46.0284C677.114 46.5284 676.97 46.9811 676.818 47.3864C676.67 47.7917 676.551 48.1098 676.46 48.3409H674.892C674.949 48.1174 675.027 47.8049 675.125 47.4034C675.223 47.0057 675.316 46.5587 675.403 46.0625C675.491 45.5663 675.545 45.0606 675.568 44.5455L675.597 43.9091H677.597ZM679.81 45.5L684.634 35.9545V35.875H679.014V33.8636H687.179V35.9034L682.349 45.5H679.81ZM697.75 42.8239L700.114 36.7727H701.955L698.551 45.5H696.943L693.619 36.7727H695.455L697.75 42.8239ZM694.903 36.7727V45.5H692.591V36.7727H694.903ZM700.716 45.5V36.7727H703V45.5H700.716ZM704.361 45.5L704.349 43.5795H704.639C704.844 43.5795 705.02 43.5303 705.168 43.4318C705.319 43.3295 705.444 43.1648 705.543 42.9375C705.641 42.7102 705.719 42.4091 705.776 42.0341C705.832 41.6553 705.87 41.1894 705.889 40.6364L706.031 36.7727H712.668V45.5H710.361V38.6761H708.207L708.071 41.3409C708.037 42.072 707.948 42.7008 707.804 43.2273C707.664 43.7538 707.469 44.1856 707.219 44.5227C706.969 44.8561 706.668 45.1023 706.315 45.2614C705.963 45.4205 705.554 45.5 705.088 45.5H704.361ZM720.618 40.1705V42.0739H716.061V40.1705H720.618ZM716.857 36.7727V45.5H714.544V36.7727H716.857ZM722.135 36.7727V45.5H719.839V36.7727H722.135Z" fill="black"/>
<path d="M782.006 33.8636V45.5H779.545V36.1989H779.477L776.812 37.8693V35.6875L779.693 33.8636H782.006ZM789.021 45.6591C788.218 45.6591 787.502 45.5114 786.874 45.2159C786.249 44.9205 785.752 44.5133 785.385 43.9943C785.018 43.4754 784.826 42.8807 784.811 42.2102H787.197C787.224 42.661 787.413 43.0265 787.766 43.3068C788.118 43.5871 788.536 43.7273 789.021 43.7273C789.408 43.7273 789.749 43.642 790.044 43.4716C790.343 43.2973 790.576 43.0568 790.743 42.75C790.913 42.4394 790.999 42.0833 790.999 41.6818C790.999 41.2727 790.911 40.9129 790.737 40.6023C790.567 40.2917 790.33 40.0492 790.027 39.875C789.724 39.7008 789.377 39.6117 788.987 39.608C788.646 39.608 788.315 39.678 787.993 39.8182C787.675 39.9583 787.427 40.1496 787.249 40.392L785.061 40L785.612 33.8636H792.726V35.875H787.641L787.339 38.7898H787.408C787.612 38.5019 787.921 38.2633 788.334 38.0739C788.747 37.8845 789.209 37.7898 789.72 37.7898C790.421 37.7898 791.046 37.9545 791.595 38.2841C792.144 38.6136 792.578 39.0663 792.896 39.642C793.214 40.214 793.372 40.8731 793.368 41.6193C793.372 42.4034 793.19 43.1004 792.822 43.7102C792.459 44.3163 791.949 44.7936 791.294 45.142C790.643 45.4867 789.885 45.6591 789.021 45.6591ZM798.855 45.5V33.8636H801.315V38.6648H806.31V33.8636H808.764V45.5H806.31V40.6932H801.315V45.5H798.855ZM814.69 45.6705C813.808 45.6705 813.045 45.483 812.401 45.108C811.76 44.7292 811.266 44.2027 810.918 43.5284C810.569 42.8504 810.395 42.0644 810.395 41.1705C810.395 40.2689 810.569 39.4811 810.918 38.8068C811.266 38.1288 811.76 37.6023 812.401 37.2273C813.045 36.8485 813.808 36.6591 814.69 36.6591C815.573 36.6591 816.334 36.8485 816.974 37.2273C817.618 37.6023 818.115 38.1288 818.463 38.8068C818.812 39.4811 818.986 40.2689 818.986 41.1705C818.986 42.0644 818.812 42.8504 818.463 43.5284C818.115 44.2027 817.618 44.7292 816.974 45.108C816.334 45.483 815.573 45.6705 814.69 45.6705ZM814.702 43.7955C815.103 43.7955 815.438 43.6818 815.707 43.4545C815.976 43.2235 816.179 42.9091 816.315 42.5114C816.455 42.1136 816.526 41.661 816.526 41.1534C816.526 40.6458 816.455 40.1932 816.315 39.7955C816.179 39.3977 815.976 39.0833 815.707 38.8523C815.438 38.6212 815.103 38.5057 814.702 38.5057C814.296 38.5057 813.955 38.6212 813.679 38.8523C813.406 39.0833 813.2 39.3977 813.06 39.7955C812.923 40.1932 812.855 40.6458 812.855 41.1534C812.855 41.661 812.923 42.1136 813.06 42.5114C813.2 42.9091 813.406 43.2235 813.679 43.4545C813.955 43.6818 814.296 43.7955 814.702 43.7955ZM825.673 45.5V38.6705H824.037C823.594 38.6705 823.257 38.7727 823.026 38.9773C822.795 39.1818 822.681 39.4242 822.685 39.7045C822.681 39.9886 822.791 40.2292 823.014 40.4261C823.241 40.6193 823.575 40.7159 824.014 40.7159H826.48V42.3523H824.014C823.268 42.3523 822.622 42.2386 822.077 42.0114C821.531 41.7841 821.111 41.4678 820.815 41.0625C820.52 40.6534 820.374 40.178 820.378 39.6364C820.374 39.0682 820.52 38.5701 820.815 38.142C821.111 37.7102 821.533 37.375 822.082 37.1364C822.635 36.8939 823.287 36.7727 824.037 36.7727H827.929V45.5H825.673ZM820.128 45.5L822.554 40.9545H824.866L822.446 45.5H820.128ZM832.44 43.9091L832.378 44.5341C832.329 45.0341 832.234 45.5322 832.094 46.0284C831.957 46.5284 831.813 46.9811 831.662 47.3864C831.514 47.7917 831.395 48.1098 831.304 48.3409H829.736C829.793 48.1174 829.87 47.8049 829.969 47.4034C830.067 47.0057 830.16 46.5587 830.247 46.0625C830.334 45.5663 830.389 45.0606 830.412 44.5455L830.44 43.9091H832.44ZM837.787 45.5V43.7273L841.929 39.892C842.281 39.5511 842.577 39.2443 842.815 38.9716C843.058 38.6989 843.241 38.4318 843.366 38.1705C843.491 37.9053 843.554 37.6193 843.554 37.3125C843.554 36.9716 843.476 36.678 843.321 36.4318C843.166 36.1818 842.954 35.9905 842.685 35.858C842.416 35.7216 842.111 35.6534 841.77 35.6534C841.414 35.6534 841.103 35.7254 840.838 35.8693C840.573 36.0133 840.368 36.2197 840.224 36.4886C840.08 36.7576 840.009 37.0777 840.009 37.4489H837.673C837.673 36.6875 837.846 36.0265 838.19 35.4659C838.535 34.9053 839.018 34.4716 839.639 34.1648C840.26 33.858 840.976 33.7045 841.787 33.7045C842.62 33.7045 843.346 33.8523 843.963 34.1477C844.584 34.4394 845.067 34.8447 845.412 35.3636C845.757 35.8826 845.929 36.4773 845.929 37.1477C845.929 37.5871 845.842 38.0208 845.668 38.4489C845.497 38.8769 845.192 39.3523 844.753 39.875C844.313 40.3939 843.694 41.017 842.895 41.7443L841.196 43.4091V43.4886H846.082V45.5H837.787ZM852.428 45.7557C851.45 45.7519 850.609 45.5114 849.905 45.0341C849.204 44.5568 848.664 43.8655 848.286 42.9602C847.911 42.0549 847.725 40.9659 847.729 39.6932C847.729 38.4242 847.916 37.3428 848.291 36.4489C848.67 35.5549 849.21 34.875 849.911 34.4091C850.615 33.9394 851.454 33.7045 852.428 33.7045C853.401 33.7045 854.238 33.9394 854.939 34.4091C855.643 34.8788 856.185 35.5606 856.564 36.4545C856.943 37.3447 857.13 38.4242 857.126 39.6932C857.126 40.9697 856.937 42.0606 856.558 42.9659C856.183 43.8712 855.645 44.5625 854.945 45.0398C854.244 45.517 853.405 45.7557 852.428 45.7557ZM852.428 43.7159C853.094 43.7159 853.626 43.3807 854.024 42.7102C854.422 42.0398 854.619 41.0341 854.615 39.6932C854.615 38.8106 854.524 38.0758 854.342 37.4886C854.164 36.9015 853.911 36.4602 853.581 36.1648C853.255 35.8693 852.871 35.7216 852.428 35.7216C851.765 35.7216 851.234 36.053 850.837 36.7159C850.439 37.3788 850.238 38.3712 850.234 39.6932C850.234 40.5871 850.323 41.3333 850.501 41.9318C850.683 42.5265 850.939 42.9735 851.268 43.2727C851.598 43.5682 851.984 43.7159 852.428 43.7159ZM858.881 45.5V43.7273L863.023 39.892C863.375 39.5511 863.67 39.2443 863.909 38.9716C864.152 38.6989 864.335 38.4318 864.46 38.1705C864.585 37.9053 864.648 37.6193 864.648 37.3125C864.648 36.9716 864.57 36.678 864.415 36.4318C864.259 36.1818 864.047 35.9905 863.778 35.858C863.509 35.7216 863.205 35.6534 862.864 35.6534C862.508 35.6534 862.197 35.7254 861.932 35.8693C861.667 36.0133 861.462 36.2197 861.318 36.4886C861.174 36.7576 861.102 37.0777 861.102 37.4489H858.767C858.767 36.6875 858.939 36.0265 859.284 35.4659C859.629 34.9053 860.112 34.4716 860.733 34.1648C861.354 33.858 862.07 33.7045 862.881 33.7045C863.714 33.7045 864.439 33.8523 865.057 34.1477C865.678 34.4394 866.161 34.8447 866.506 35.3636C866.85 35.8826 867.023 36.4773 867.023 37.1477C867.023 37.5871 866.936 38.0208 866.761 38.4489C866.591 38.8769 866.286 39.3523 865.847 39.875C865.407 40.3939 864.788 41.017 863.989 41.7443L862.29 43.4091V43.4886H867.176V45.5H858.881ZM873.26 45.6591C872.411 45.6591 871.656 45.5133 870.993 45.2216C870.334 44.9261 869.813 44.5208 869.43 44.0057C869.052 43.4867 868.857 42.8883 868.845 42.2102H871.322C871.338 42.4943 871.43 42.7443 871.601 42.9602C871.775 43.1723 872.006 43.3371 872.294 43.4545C872.582 43.572 872.906 43.6307 873.266 43.6307C873.641 43.6307 873.972 43.5644 874.26 43.4318C874.548 43.2992 874.773 43.1155 874.936 42.8807C875.099 42.6458 875.18 42.375 875.18 42.0682C875.18 41.7576 875.093 41.483 874.919 41.2443C874.749 41.0019 874.502 40.8125 874.18 40.6761C873.862 40.5398 873.483 40.4716 873.044 40.4716H871.959V38.6648H873.044C873.415 38.6648 873.743 38.6004 874.027 38.4716C874.315 38.3428 874.538 38.1648 874.697 37.9375C874.857 37.7064 874.936 37.4375 874.936 37.1307C874.936 36.839 874.866 36.5833 874.726 36.3636C874.589 36.1402 874.396 35.9659 874.146 35.8409C873.9 35.7159 873.612 35.6534 873.283 35.6534C872.949 35.6534 872.644 35.714 872.368 35.8352C872.091 35.9527 871.87 36.1212 871.703 36.3409C871.536 36.5606 871.447 36.8182 871.436 37.1136H869.078C869.089 36.4432 869.281 35.8523 869.652 35.3409C870.023 34.8295 870.523 34.4299 871.152 34.142C871.785 33.8504 872.499 33.7045 873.294 33.7045C874.097 33.7045 874.8 33.8504 875.402 34.142C876.004 34.4337 876.472 34.8277 876.805 35.3239C877.143 35.8163 877.309 36.3693 877.305 36.983C877.309 37.6345 877.107 38.178 876.697 38.6136C876.292 39.0492 875.764 39.3258 875.112 39.4432V39.5341C875.968 39.6439 876.62 39.9413 877.067 40.4261C877.518 40.9072 877.741 41.5095 877.737 42.233C877.741 42.8958 877.55 43.4848 877.163 44C876.781 44.5152 876.252 44.9205 875.578 45.2159C874.904 45.5114 874.131 45.6591 873.26 45.6591ZM888.271 33.8636V45.5H885.811V36.1989H885.743L883.078 37.8693V35.6875L885.959 33.8636H888.271ZM890.861 43.4545V41.517L895.719 33.8636H897.389V36.5455H896.401L893.338 41.392V41.483H900.241V43.4545H890.861ZM896.446 45.5V42.8636L896.491 42.0057V33.8636H898.798V45.5H896.446ZM903.318 44.1477C902.943 44.1477 902.621 44.0152 902.352 43.75C902.087 43.4848 901.955 43.1629 901.955 42.7841C901.955 42.4129 902.087 42.0947 902.352 41.8295C902.621 41.5644 902.943 41.4318 903.318 41.4318C903.682 41.4318 904 41.5644 904.273 41.8295C904.545 42.0947 904.682 42.4129 904.682 42.7841C904.682 43.0341 904.617 43.2633 904.489 43.4716C904.364 43.6761 904.199 43.8409 903.994 43.9659C903.79 44.0871 903.564 44.1477 903.318 44.1477ZM903.318 38.4375C902.943 38.4375 902.621 38.3049 902.352 38.0398C902.087 37.7746 901.955 37.4527 901.955 37.0739C901.955 36.7027 902.087 36.3864 902.352 36.125C902.621 35.8598 902.943 35.7273 903.318 35.7273C903.682 35.7273 904 35.8598 904.273 36.125C904.545 36.3864 904.682 36.7027 904.682 37.0739C904.682 37.3277 904.617 37.5587 904.489 37.767C904.364 37.9716 904.199 38.1345 903.994 38.2557C903.79 38.3769 903.564 38.4375 903.318 38.4375ZM910.896 45.6591C910.093 45.6591 909.377 45.5114 908.749 45.2159C908.124 44.9205 907.627 44.5133 907.26 43.9943C906.893 43.4754 906.701 42.8807 906.686 42.2102H909.072C909.099 42.661 909.288 43.0265 909.641 43.3068C909.993 43.5871 910.411 43.7273 910.896 43.7273C911.283 43.7273 911.624 43.642 911.919 43.4716C912.218 43.2973 912.451 43.0568 912.618 42.75C912.788 42.4394 912.874 42.0833 912.874 41.6818C912.874 41.2727 912.786 40.9129 912.612 40.6023C912.442 40.2917 912.205 40.0492 911.902 39.875C911.599 39.7008 911.252 39.6117 910.862 39.608C910.521 39.608 910.19 39.678 909.868 39.8182C909.55 39.9583 909.302 40.1496 909.124 40.392L906.936 40L907.487 33.8636H914.601V35.875H909.516L909.214 38.7898H909.283C909.487 38.5019 909.796 38.2633 910.209 38.0739C910.622 37.8845 911.084 37.7898 911.595 37.7898C912.296 37.7898 912.921 37.9545 913.47 38.2841C914.019 38.6136 914.453 39.0663 914.771 39.642C915.089 40.214 915.247 40.8731 915.243 41.6193C915.247 42.4034 915.065 43.1004 914.697 43.7102C914.334 44.3163 913.824 44.7936 913.169 45.142C912.518 45.4867 911.76 45.6591 910.896 45.6591ZM921.26 45.6591C920.411 45.6591 919.656 45.5133 918.993 45.2216C918.334 44.9261 917.813 44.5208 917.43 44.0057C917.052 43.4867 916.857 42.8883 916.845 42.2102H919.322C919.338 42.4943 919.43 42.7443 919.601 42.9602C919.775 43.1723 920.006 43.3371 920.294 43.4545C920.582 43.572 920.906 43.6307 921.266 43.6307C921.641 43.6307 921.972 43.5644 922.26 43.4318C922.548 43.2992 922.773 43.1155 922.936 42.8807C923.099 42.6458 923.18 42.375 923.18 42.0682C923.18 41.7576 923.093 41.483 922.919 41.2443C922.749 41.0019 922.502 40.8125 922.18 40.6761C921.862 40.5398 921.483 40.4716 921.044 40.4716H919.959V38.6648H921.044C921.415 38.6648 921.743 38.6004 922.027 38.4716C922.315 38.3428 922.538 38.1648 922.697 37.9375C922.857 37.7064 922.936 37.4375 922.936 37.1307C922.936 36.839 922.866 36.5833 922.726 36.3636C922.589 36.1402 922.396 35.9659 922.146 35.8409C921.9 35.7159 921.612 35.6534 921.283 35.6534C920.949 35.6534 920.644 35.714 920.368 35.8352C920.091 35.9527 919.87 36.1212 919.703 36.3409C919.536 36.5606 919.447 36.8182 919.436 37.1136H917.078C917.089 36.4432 917.281 35.8523 917.652 35.3409C918.023 34.8295 918.523 34.4299 919.152 34.142C919.785 33.8504 920.499 33.7045 921.294 33.7045C922.097 33.7045 922.8 33.8504 923.402 34.142C924.004 34.4337 924.472 34.8277 924.805 35.3239C925.143 35.8163 925.309 36.3693 925.305 36.983C925.309 37.6345 925.107 38.178 924.697 38.6136C924.292 39.0492 923.764 39.3258 923.112 39.4432V39.5341C923.968 39.6439 924.62 39.9413 925.067 40.4261C925.518 40.9072 925.741 41.5095 925.737 42.233C925.741 42.8958 925.55 43.4848 925.163 44C924.781 44.5152 924.252 44.9205 923.578 45.2159C922.904 45.5114 922.131 45.6591 921.26 45.6591Z" fill="black"/>
<rect x="1000" y="19.5" width="120" height="40" rx="20" fill="#ECECFE"/>
<path d="M1031.26 43.5V34.7727H1034.75C1035.39 34.7727 1035.93 34.8679 1036.36 35.0582C1036.79 35.2486 1037.11 35.5128 1037.33 35.8509C1037.54 36.1861 1037.65 36.5724 1037.65 37.0099C1037.65 37.3509 1037.58 37.6506 1037.45 37.9091C1037.31 38.1648 1037.12 38.375 1036.88 38.5398C1036.65 38.7017 1036.38 38.8168 1036.07 38.8849V38.9702C1036.41 38.9844 1036.72 39.0781 1037.01 39.2514C1037.3 39.4247 1037.54 39.6676 1037.72 39.9801C1037.9 40.2898 1037.99 40.6591 1037.99 41.0881C1037.99 41.5511 1037.88 41.9645 1037.65 42.3281C1037.42 42.6889 1037.08 42.9744 1036.64 43.1847C1036.19 43.3949 1035.64 43.5 1034.99 43.5H1031.26ZM1033.1 41.9915H1034.61C1035.12 41.9915 1035.5 41.8935 1035.73 41.6974C1035.97 41.4986 1036.09 41.2344 1036.09 40.9048C1036.09 40.6634 1036.03 40.4503 1035.91 40.2656C1035.8 40.081 1035.63 39.9361 1035.41 39.831C1035.2 39.7259 1034.95 39.6733 1034.65 39.6733H1033.1V41.9915ZM1033.1 38.4247H1034.47C1034.72 38.4247 1034.95 38.3807 1035.14 38.2926C1035.34 38.2017 1035.5 38.0739 1035.61 37.9091C1035.73 37.7443 1035.79 37.5469 1035.79 37.3168C1035.79 37.0014 1035.68 36.7472 1035.45 36.554C1035.23 36.3608 1034.91 36.2642 1034.51 36.2642H1033.1V38.4247ZM1041.97 43.5V34.7727H1045.41C1046.07 34.7727 1046.64 34.8991 1047.1 35.152C1047.57 35.402 1047.93 35.75 1048.17 36.196C1048.42 36.6392 1048.54 37.1506 1048.54 37.7301C1048.54 38.3097 1048.42 38.821 1048.17 39.2642C1047.92 39.7074 1047.55 40.0526 1047.08 40.2997C1046.61 40.5469 1046.04 40.6705 1045.37 40.6705H1043.17V39.1918H1045.07C1045.42 39.1918 1045.72 39.1307 1045.95 39.0085C1046.18 38.8835 1046.35 38.7116 1046.47 38.4929C1046.58 38.2713 1046.64 38.017 1046.64 37.7301C1046.64 37.4403 1046.58 37.1875 1046.47 36.9716C1046.35 36.7528 1046.18 36.5838 1045.95 36.4645C1045.71 36.3423 1045.42 36.2812 1045.06 36.2812H1043.81V43.5H1041.97ZM1050.24 43.5H1048.26L1051.27 34.7727H1053.65L1056.66 43.5H1054.68L1052.49 36.767H1052.43L1050.24 43.5ZM1050.11 40.0696H1054.78V41.5099H1050.11V40.0696ZM1057.71 43.5V34.7727H1063.5V36.294H1059.55V37.9986H1060.97C1061.66 37.9986 1062.26 38.1108 1062.76 38.3352C1063.26 38.5568 1063.65 38.8707 1063.92 39.277C1064.19 39.6832 1064.33 40.1619 1064.33 40.7131C1064.33 41.2614 1064.19 41.7457 1063.92 42.1662C1063.65 42.5838 1063.26 42.9105 1062.76 43.1463C1062.26 43.3821 1061.66 43.5 1060.97 43.5H1057.71ZM1059.55 42.017H1060.97C1061.3 42.017 1061.58 41.9574 1061.81 41.8381C1062.03 41.7159 1062.21 41.5554 1062.32 41.3565C1062.44 41.1548 1062.5 40.9347 1062.5 40.696C1062.5 40.3494 1062.37 40.0568 1062.11 39.8182C1061.84 39.5767 1061.47 39.456 1060.97 39.456H1059.55V42.017ZM1073.54 39.1364C1073.54 40.0881 1073.36 40.8977 1073 41.5653C1072.64 42.233 1072.16 42.7429 1071.54 43.0952C1070.92 43.4446 1070.23 43.6193 1069.46 43.6193C1068.68 43.6193 1067.99 43.4432 1067.37 43.0909C1066.75 42.7386 1066.27 42.2287 1065.91 41.5611C1065.55 40.8935 1065.37 40.0852 1065.37 39.1364C1065.37 38.1847 1065.55 37.375 1065.91 36.7074C1066.27 36.0398 1066.75 35.5312 1067.37 35.1818C1067.99 34.8295 1068.68 34.6534 1069.46 34.6534C1070.23 34.6534 1070.92 34.8295 1071.54 35.1818C1072.16 35.5312 1072.64 36.0398 1073 36.7074C1073.36 37.375 1073.54 38.1847 1073.54 39.1364ZM1071.67 39.1364C1071.67 38.5199 1071.58 38 1071.4 37.5767C1071.21 37.1534 1070.96 36.8324 1070.62 36.6136C1070.29 36.3949 1069.9 36.2855 1069.46 36.2855C1069.01 36.2855 1068.62 36.3949 1068.29 36.6136C1067.96 36.8324 1067.7 37.1534 1067.51 37.5767C1067.33 38 1067.24 38.5199 1067.24 39.1364C1067.24 39.7528 1067.33 40.2727 1067.51 40.696C1067.7 41.1193 1067.96 41.4403 1068.29 41.6591C1068.62 41.8778 1069.01 41.9872 1069.46 41.9872C1069.9 41.9872 1070.29 41.8778 1070.62 41.6591C1070.96 41.4403 1071.21 41.1193 1071.4 40.696C1071.58 40.2727 1071.67 39.7528 1071.67 39.1364ZM1074.18 36.294V34.7727H1081.35V36.294H1078.68V43.5H1076.85V36.294H1074.18ZM1082.53 43.5V34.7727H1088.41V36.294H1084.37V38.3736H1088.11V39.8949H1084.37V41.9787H1088.43V43.5H1082.53Z" fill="#4BA35B"/>
<path d="M1167.54 47.02C1166.93 47.02 1166.36 46.81 1165.95 46.42C1165.43 45.93 1165.18 45.19 1165.27 44.39L1165.64 41.15C1165.71 40.54 1166.08 39.73 1166.51 39.29L1174.72 30.6C1176.77 28.43 1178.91 28.37 1181.08 30.42C1183.25 32.47 1183.31 34.61 1181.26 36.78L1173.05 45.47C1172.63 45.92 1171.85 46.34 1171.24 46.44L1168.02 46.99C1167.85 47 1167.7 47.02 1167.54 47.02ZM1177.93 30.41C1177.16 30.41 1176.49 30.89 1175.81 31.61L1167.6 40.31C1167.4 40.52 1167.17 41.02 1167.13 41.31L1166.76 44.55C1166.72 44.88 1166.8 45.15 1166.98 45.32C1167.16 45.49 1167.43 45.55 1167.76 45.5L1170.98 44.95C1171.27 44.9 1171.75 44.64 1171.95 44.43L1180.16 35.74C1181.4 34.42 1181.85 33.2 1180.04 31.5C1179.24 30.73 1178.55 30.41 1177.93 30.41Z" fill="#7E92A2"/>
<path d="M1179.34 38.45C1179.32 38.45 1179.29 38.45 1179.27 38.45C1176.15 38.14 1173.64 35.77 1173.16 32.67C1173.1 32.26 1173.38 31.88 1173.79 31.81C1174.2 31.75 1174.58 32.03 1174.65 32.44C1175.03 34.86 1176.99 36.72 1179.43 36.96C1179.84 37 1180.14 37.37 1180.1 37.78C1180.05 38.16 1179.72 38.45 1179.34 38.45Z" fill="#7E92A2"/>
<path d="M1183 50.25H1165C1164.59 50.25 1164.25 49.91 1164.25 49.5C1164.25 49.09 1164.59 48.75 1165 48.75H1183C1183.41 48.75 1183.75 49.09 1183.75 49.5C1183.75 49.91 1183.41 50.25 1183 50.25Z" fill="#7E92A2"/>
<rect y="79" width="1228" height="1" fill="#EAEEF4"/>
</g>
<rect x="1.5" y="1.5" width="1225" height="77" rx="38.5" stroke="url(#paint0_linear_8_1819)" stroke-width="3"/>
<defs>
<linearGradient id="paint0_linear_8_1819" x1="143" y1="49.5001" x2="968.5" y2="51.5001" gradientUnits="userSpaceOnUse">
<stop stop-color="#009F2B"/>
<stop offset="0.203125" stop-color="#E1DD00"/>
<stop offset="0.651042" stop-color="#13A0E7"/>
<stop offset="0.807292" stop-color="#13A0E7"/>
<stop offset="1" stop-color="#36A419"/>
</linearGradient>
<clipPath id="clip0_8_1819">
<rect width="1228" height="80" rx="40" fill="white"/>
</clipPath>
<clipPath id="clip1_8_1819">
<rect x="12" y="17.5" width="44" height="44" rx="22" fill="white"/>
</clipPath>
<clipPath id="clip2_8_1819">
<rect width="404" height="30" fill="white" transform="translate(80 24.5)"/>
</clipPath>
</defs>
</svg>
