<svg width="20" height="20" viewBox="0 0 20 20" fill="none" xmlns="http://www.w3.org/2000/svg">
<path d="M9.99984 13.1251C8.27484 13.1251 6.87484 11.7251 6.87484 10.0001C6.87484 8.27508 8.27484 6.87508 9.99984 6.87508C11.7248 6.87508 13.1248 8.27508 13.1248 10.0001C13.1248 11.7251 11.7248 13.1251 9.99984 13.1251ZM9.99984 8.12508C8.9665 8.12508 8.12484 8.96674 8.12484 10.0001C8.12484 11.0334 8.9665 11.8751 9.99984 11.8751C11.0332 11.8751 11.8748 11.0334 11.8748 10.0001C11.8748 8.96674 11.0332 8.12508 9.99984 8.12508Z" fill="#7E92A2"/>
<path d="M12.6748 18.4917C12.4998 18.4917 12.3248 18.4667 12.1498 18.4251C11.6332 18.2834 11.1998 17.9584 10.9248 17.5001L10.8248 17.3334C10.3332 16.4834 9.65817 16.4834 9.1665 17.3334L9.07484 17.4917C8.79984 17.9584 8.3665 18.2917 7.84984 18.4251C7.32484 18.5667 6.78317 18.4917 6.32484 18.2167L4.8915 17.3917C4.38317 17.1001 4.0165 16.6251 3.85817 16.0501C3.70817 15.4751 3.78317 14.8834 4.07484 14.3751C4.3165 13.9501 4.38317 13.5667 4.2415 13.3251C4.09984 13.0834 3.7415 12.9417 3.24984 12.9417C2.03317 12.9417 1.0415 11.9501 1.0415 10.7334V9.26674C1.0415 8.05008 2.03317 7.05841 3.24984 7.05841C3.7415 7.05841 4.09984 6.91674 4.2415 6.67508C4.38317 6.43341 4.32484 6.05008 4.07484 5.62508C3.78317 5.11674 3.70817 4.51674 3.85817 3.95008C4.00817 3.37508 4.37484 2.90008 4.8915 2.60841L6.33317 1.78341C7.27484 1.22508 8.5165 1.55008 9.08317 2.50841L9.18317 2.67508C9.67484 3.52508 10.3498 3.52508 10.8415 2.67508L10.9332 2.51674C11.4998 1.55008 12.7415 1.22508 13.6915 1.79174L15.1248 2.61674C15.6332 2.90841 15.9998 3.38341 16.1582 3.95841C16.3082 4.53341 16.2332 5.12508 15.9415 5.63341C15.6998 6.05841 15.6332 6.44174 15.7748 6.68341C15.9165 6.92508 16.2748 7.06674 16.7665 7.06674C17.9832 7.06674 18.9748 8.05841 18.9748 9.27508V10.7417C18.9748 11.9584 17.9832 12.9501 16.7665 12.9501C16.2748 12.9501 15.9165 13.0917 15.7748 13.3334C15.6332 13.5751 15.6915 13.9584 15.9415 14.3834C16.2332 14.8917 16.3165 15.4917 16.1582 16.0584C16.0082 16.6334 15.6415 17.1084 15.1248 17.4001L13.6832 18.2251C13.3665 18.4001 13.0248 18.4917 12.6748 18.4917ZM9.99984 15.4084C10.7415 15.4084 11.4332 15.8751 11.9082 16.7001L11.9998 16.8584C12.0998 17.0334 12.2665 17.1584 12.4665 17.2084C12.6665 17.2584 12.8665 17.2334 13.0332 17.1334L14.4748 16.3001C14.6915 16.1751 14.8582 15.9667 14.9248 15.7167C14.9915 15.4667 14.9582 15.2084 14.8332 14.9917C14.3582 14.1751 14.2998 13.3334 14.6665 12.6917C15.0332 12.0501 15.7915 11.6834 16.7415 11.6834C17.2748 11.6834 17.6998 11.2584 17.6998 10.7251V9.25841C17.6998 8.73341 17.2748 8.30008 16.7415 8.30008C15.7915 8.30008 15.0332 7.93341 14.6665 7.29174C14.2998 6.65008 14.3582 5.80841 14.8332 4.99174C14.9582 4.77508 14.9915 4.51674 14.9248 4.26674C14.8582 4.01674 14.6998 3.81674 14.4832 3.68341L13.0415 2.85841C12.6832 2.64174 12.2082 2.76674 11.9915 3.13341L11.8998 3.29174C11.4248 4.11674 10.7332 4.58341 9.9915 4.58341C9.24984 4.58341 8.55817 4.11674 8.08317 3.29174L7.9915 3.12508C7.78317 2.77508 7.3165 2.65008 6.95817 2.85841L5.5165 3.69174C5.29984 3.81674 5.13317 4.02508 5.0665 4.27508C4.99984 4.52508 5.03317 4.78341 5.15817 5.00008C5.63317 5.81674 5.6915 6.65841 5.32484 7.30008C4.95817 7.94174 4.19984 8.30841 3.24984 8.30841C2.7165 8.30841 2.2915 8.73341 2.2915 9.26674V10.7334C2.2915 11.2584 2.7165 11.6917 3.24984 11.6917C4.19984 11.6917 4.95817 12.0584 5.32484 12.7001C5.6915 13.3417 5.63317 14.1834 5.15817 15.0001C5.03317 15.2167 4.99984 15.4751 5.0665 15.7251C5.13317 15.9751 5.2915 16.1751 5.50817 16.3084L6.94984 17.1334C7.12484 17.2417 7.33317 17.2667 7.52484 17.2167C7.72484 17.1667 7.8915 17.0334 7.99984 16.8584L8.0915 16.7001C8.5665 15.8834 9.25817 15.4084 9.99984 15.4084Z" fill="#7E92A2"/>
</svg>
