<svg width="20" height="20" viewBox="0 0 20 20" fill="none" xmlns="http://www.w3.org/2000/svg">
<path d="M12.0251 15.6834C11.8667 15.6834 11.7084 15.6251 11.5834 15.5001C11.3417 15.2584 11.3417 14.8584 11.5834 14.6168L16.2001 10.0001L11.5834 5.38343C11.3417 5.14176 11.3417 4.74176 11.5834 4.5001C11.8251 4.25843 12.2251 4.25843 12.4667 4.5001L17.5251 9.55843C17.7667 9.8001 17.7667 10.2001 17.5251 10.4418L12.4667 15.5001C12.3417 15.6251 12.1834 15.6834 12.0251 15.6834Z" fill="#4BA35B"/>
<path d="M16.9417 10.6251H2.91675C2.57508 10.6251 2.29175 10.3418 2.29175 10.0001C2.29175 9.65843 2.57508 9.3751 2.91675 9.3751H16.9417C17.2834 9.3751 17.5667 9.65843 17.5667 10.0001C17.5667 10.3418 17.2834 10.6251 16.9417 10.6251Z" fill="#4BA35B"/>
</svg>
