<svg width="20" height="20" viewBox="0 0 20 20" fill="none" xmlns="http://www.w3.org/2000/svg">
<path d="M7.63301 9.68342C7.60801 9.68342 7.59134 9.68342 7.56634 9.68342C7.52467 9.67508 7.46634 9.67508 7.41634 9.68342C4.99967 9.60841 3.17467 7.70842 3.17467 5.36675C3.17467 2.98341 5.11634 1.04175 7.49968 1.04175C9.88301 1.04175 11.8247 2.98341 11.8247 5.36675C11.8163 7.70842 9.98301 9.60841 7.65801 9.68342C7.64967 9.68342 7.64134 9.68342 7.63301 9.68342ZM7.49968 2.29175C5.80801 2.29175 4.42467 3.67508 4.42467 5.36675C4.42467 7.03341 5.72467 8.37508 7.38301 8.43341C7.43301 8.42508 7.54134 8.42508 7.64968 8.43341C9.28301 8.35841 10.5663 7.01675 10.5747 5.36675C10.5747 3.67508 9.19134 2.29175 7.49968 2.29175Z" fill="#7E92A2"/>
<path d="M13.783 9.79175C13.758 9.79175 13.733 9.79175 13.708 9.78341C13.3663 9.81675 13.0163 9.57508 12.983 9.23341C12.9497 8.89175 13.158 8.58342 13.4997 8.54175C13.5997 8.53341 13.708 8.53341 13.7997 8.53341C15.0163 8.46675 15.9663 7.46675 15.9663 6.24175C15.9663 4.97508 14.9413 3.95008 13.6747 3.95008C13.333 3.95841 13.0497 3.67508 13.0497 3.33341C13.0497 2.99175 13.333 2.70841 13.6747 2.70841C15.6247 2.70841 17.2163 4.30008 17.2163 6.25008C17.2163 8.16675 15.7163 9.71675 13.808 9.79175C13.7997 9.79175 13.7913 9.79175 13.783 9.79175Z" fill="#7E92A2"/>
<path d="M7.64134 18.7917C6.00801 18.7917 4.36634 18.3751 3.12467 17.5417C1.96634 16.7751 1.33301 15.7251 1.33301 14.5834C1.33301 13.4417 1.96634 12.3834 3.12467 11.6084C5.62468 9.95008 9.67468 9.95008 12.158 11.6084C13.308 12.3751 13.9497 13.4251 13.9497 14.5667C13.9497 15.7084 13.3163 16.7667 12.158 17.5417C10.908 18.3751 9.27468 18.7917 7.64134 18.7917ZM3.81634 12.6584C3.01634 13.1917 2.58301 13.8751 2.58301 14.5917C2.58301 15.3001 3.02467 15.9834 3.81634 16.5084C5.89134 17.9001 9.39134 17.9001 11.4663 16.5084C12.2663 15.9751 12.6997 15.2917 12.6997 14.5751C12.6997 13.8667 12.258 13.1834 11.4663 12.6584C9.39134 11.2751 5.89134 11.2751 3.81634 12.6584Z" fill="#7E92A2"/>
<path d="M15.283 17.2917C14.9913 17.2917 14.733 17.0917 14.6747 16.7917C14.608 16.4501 14.8247 16.1251 15.158 16.0501C15.683 15.9417 16.1663 15.7334 16.5413 15.4417C17.0163 15.0834 17.2747 14.6334 17.2747 14.1584C17.2747 13.6834 17.0163 13.2334 16.5497 12.8834C16.183 12.6001 15.7247 12.4001 15.183 12.2751C14.8497 12.2001 14.633 11.8667 14.708 11.5251C14.783 11.1917 15.1163 10.9751 15.458 11.0501C16.1747 11.2084 16.7997 11.4917 17.308 11.8834C18.083 12.4667 18.5247 13.2917 18.5247 14.1584C18.5247 15.0251 18.0747 15.8501 17.2997 16.4417C16.783 16.8417 16.133 17.1334 15.4163 17.2751C15.3663 17.2917 15.3247 17.2917 15.283 17.2917Z" fill="#7E92A2"/>
</svg>
