<svg width="20" height="20" viewBox="0 0 20 20" fill="none" xmlns="http://www.w3.org/2000/svg">
<path d="M9.58342 18.1251C4.87508 18.1251 1.04175 14.2917 1.04175 9.58342C1.04175 4.87508 4.87508 1.04175 9.58342 1.04175C14.2917 1.04175 18.1251 4.87508 18.1251 9.58342C18.1251 14.2917 14.2917 18.1251 9.58342 18.1251ZM9.58342 2.29175C5.55841 2.29175 2.29175 5.56675 2.29175 9.58342C2.29175 13.6001 5.55841 16.8751 9.58342 16.8751C13.6084 16.8751 16.8751 13.6001 16.8751 9.58342C16.8751 5.56675 13.6084 2.29175 9.58342 2.29175Z" fill="#7E92A2"/>
<path d="M18.3334 18.9584C18.1751 18.9584 18.0167 18.9001 17.8917 18.7751L16.2251 17.1084C15.9834 16.8667 15.9834 16.4667 16.2251 16.2251C16.4667 15.9834 16.8667 15.9834 17.1084 16.2251L18.7751 17.8917C19.0168 18.1334 19.0168 18.5334 18.7751 18.7751C18.6501 18.9001 18.4917 18.9584 18.3334 18.9584Z" fill="#7E92A2"/>
</svg>
