<svg width="20" height="20" viewBox="0 0 20 20" fill="none" xmlns="http://www.w3.org/2000/svg">
<path d="M4.61667 16.2666C4.10833 16.2666 3.63333 16.0916 3.29167 15.7666C2.85833 15.3583 2.65 14.7416 2.725 14.075L3.03333 11.375C3.09167 10.8666 3.4 10.1916 3.75833 9.82496L10.6 2.58329C12.3083 0.774959 14.0917 0.72496 15.9 2.43329C17.7083 4.14163 17.7583 5.92496 16.05 7.73329L9.20833 14.975C8.85833 15.35 8.20833 15.7 7.7 15.7833L5.01667 16.2416C4.875 16.25 4.75 16.2666 4.61667 16.2666ZM13.275 2.42496C12.6333 2.42496 12.075 2.82496 11.5083 3.42496L4.66667 10.675C4.5 10.85 4.30833 11.2666 4.275 11.5083L3.96667 14.2083C3.93333 14.4833 4 14.7083 4.15 14.85C4.3 14.9916 4.525 15.0416 4.8 15L7.48333 14.5416C7.725 14.5 8.125 14.2833 8.29167 14.1083L15.1333 6.86663C16.1667 5.76663 16.5417 4.74996 15.0333 3.33329C14.3667 2.69163 13.7917 2.42496 13.275 2.42496Z" fill="#7E92A2"/>
<path d="M14.45 9.12496C14.4333 9.12496 14.4083 9.12496 14.3917 9.12496C11.7917 8.86663 9.7 6.89163 9.3 4.30829C9.25 3.96663 9.48333 3.64996 9.825 3.59163C10.1667 3.54163 10.4833 3.77496 10.5417 4.11663C10.8583 6.13329 12.4917 7.68329 14.525 7.88329C14.8667 7.91663 15.1167 8.22496 15.0833 8.56663C15.0417 8.88329 14.7667 9.12496 14.45 9.12496Z" fill="#7E92A2"/>
<path d="M17.5 18.9583H2.5C2.15833 18.9583 1.875 18.675 1.875 18.3333C1.875 17.9916 2.15833 17.7083 2.5 17.7083H17.5C17.8417 17.7083 18.125 17.9916 18.125 18.3333C18.125 18.675 17.8417 18.9583 17.5 18.9583Z" fill="#7E92A2"/>
</svg>
