<svg width="20" height="20" viewBox="0 0 20 20" fill="none" xmlns="http://www.w3.org/2000/svg">
<path d="M16.475 11.4583H13.1083C11.4333 11.4583 10.625 10.6833 10.625 9.08332V3.41666C10.625 1.81666 11.4417 1.04166 13.1083 1.04166H16.475C18.15 1.04166 18.9583 1.81666 18.9583 3.41666V9.08332C18.9583 10.6833 18.1417 11.4583 16.475 11.4583ZM13.1083 2.29166C12.05 2.29166 11.875 2.57499 11.875 3.41666V9.08332C11.875 9.92499 12.05 10.2083 13.1083 10.2083H16.475C17.5333 10.2083 17.7083 9.92499 17.7083 9.08332V3.41666C17.7083 2.57499 17.5333 2.29166 16.475 2.29166H13.1083V2.29166Z" fill="#7E92A2"/>
<path d="M16.475 18.4583H13.1083C12.3384 18.4583 11.8662 18.2794 11.5842 18.0096C11.3066 17.7439 11.125 17.3049 11.125 16.5833V15.0833C11.125 14.3631 11.308 13.9238 11.5869 13.6575C11.8704 13.3869 12.3432 13.2083 13.1083 13.2083H16.475C17.2449 13.2083 17.7171 13.3872 17.9991 13.6571C18.2768 13.9228 18.4583 14.3618 18.4583 15.0833V16.5833C18.4583 17.3035 18.2754 17.7429 17.9964 18.0091C17.713 18.2797 17.2401 18.4583 16.475 18.4583ZM13.1083 13.4583C12.5806 13.4583 12.0756 13.5173 11.7412 13.8516C11.4031 14.1898 11.375 14.6762 11.375 15.0833V16.5833C11.375 16.9904 11.4031 17.4769 11.7412 17.815C12.0756 18.1494 12.5806 18.2083 13.1083 18.2083H16.475C17.0027 18.2083 17.5077 18.1494 17.8421 17.815C18.1802 17.4769 18.2083 16.9904 18.2083 16.5833V15.0833C18.2083 14.6762 18.1802 14.1898 17.8421 13.8516C17.5077 13.5173 17.0027 13.4583 16.475 13.4583H13.1083Z" stroke="#7E92A2"/>
<path d="M6.89169 18.9583H3.52502C1.85002 18.9583 1.04169 18.1833 1.04169 16.5833V10.9167C1.04169 9.31666 1.85835 8.54166 3.52502 8.54166H6.89169C8.56669 8.54166 9.37502 9.31666 9.37502 10.9167V16.5833C9.37502 18.1833 8.55835 18.9583 6.89169 18.9583ZM3.52502 9.79166C2.46669 9.79166 2.29169 10.075 2.29169 10.9167V16.5833C2.29169 17.425 2.46669 17.7083 3.52502 17.7083H6.89169C7.95002 17.7083 8.12502 17.425 8.12502 16.5833V10.9167C8.12502 10.075 7.95002 9.79166 6.89169 9.79166H3.52502V9.79166Z" fill="#7E92A2"/>
<path d="M6.89169 7.29166H3.52502C1.85002 7.29166 1.04169 6.51666 1.04169 4.91666V3.41666C1.04169 1.81666 1.85835 1.04166 3.52502 1.04166H6.89169C8.56669 1.04166 9.37502 1.81666 9.37502 3.41666V4.91666C9.37502 6.51666 8.55835 7.29166 6.89169 7.29166ZM3.52502 2.29166C2.46669 2.29166 2.29169 2.57499 2.29169 3.41666V4.91666C2.29169 5.75832 2.46669 6.04166 3.52502 6.04166H6.89169C7.95002 6.04166 8.12502 5.75832 8.12502 4.91666V3.41666C8.12502 2.57499 7.95002 2.29166 6.89169 2.29166H3.52502V2.29166Z" fill="#7E92A2"/>
</svg>
