<svg width="20" height="20" viewBox="0 0 20 20" fill="none" xmlns="http://www.w3.org/2000/svg">
<path d="M17.9168 9.08341V3.41675C17.9168 2.16675 17.3835 1.66675 16.0585 1.66675H12.6918C11.3668 1.66675 10.8335 2.16675 10.8335 3.41675V9.08341C10.8335 10.3334 11.3668 10.8334 12.6918 10.8334H16.0585C17.3835 10.8334 17.9168 10.3334 17.9168 9.08341Z" fill="white"/>
<path d="M9.16683 10.9167V16.5834C9.16683 17.8334 8.6335 18.3334 7.3085 18.3334H3.94183C2.61683 18.3334 2.0835 17.8334 2.0835 16.5834V10.9167C2.0835 9.66675 2.61683 9.16675 3.94183 9.16675H7.3085C8.6335 9.16675 9.16683 9.66675 9.16683 10.9167Z" fill="white"/>
<path d="M17.9168 16.5834V14.2501C17.9168 13.0001 17.3835 12.5001 16.0585 12.5001H12.6918C11.3668 12.5001 10.8335 13.0001 10.8335 14.2501V16.5834C10.8335 17.8334 11.3668 18.3334 12.6918 18.3334H16.0585C17.3835 18.3334 17.9168 17.8334 17.9168 16.5834Z" fill="white"/>
<path d="M9.16683 5.75008V3.41675C9.16683 2.16675 8.6335 1.66675 7.3085 1.66675H3.94183C2.61683 1.66675 2.0835 2.16675 2.0835 3.41675V5.75008C2.0835 7.00008 2.61683 7.50008 3.94183 7.50008H7.3085C8.6335 7.50008 9.16683 7.00008 9.16683 5.75008Z" fill="white"/>
</svg>
