<svg width="20" height="20" viewBox="0 0 20 20" fill="none" xmlns="http://www.w3.org/2000/svg">
<path d="M17.575 5.81667C16.8667 5.03334 15.6833 4.64167 13.9667 4.64167H13.7667V4.60834C13.7667 3.20834 13.7667 1.47501 10.6333 1.47501H9.36666C6.23332 1.47501 6.23332 3.21667 6.23332 4.60834V4.65001H6.03332C4.30832 4.65001 3.13332 5.04167 2.42499 5.82501C1.59999 6.74167 1.62499 7.97501 1.70832 8.81667L1.71666 8.87501L1.7812 9.55274C1.79309 9.67755 1.86031 9.79029 1.96522 9.85894C2.16506 9.98972 2.49951 10.2053 2.69999 10.3167C2.81666 10.3917 2.94166 10.4583 3.06666 10.525C4.49166 11.3083 6.05832 11.8333 7.64999 12.0917C7.72499 12.875 8.06666 13.7917 9.89166 13.7917C11.7167 13.7917 12.075 12.8833 12.1333 12.075C13.8333 11.8 15.475 11.2083 16.9583 10.3417C17.0083 10.3167 17.0417 10.2917 17.0833 10.2667C17.4139 10.0798 17.7569 9.84957 18.0695 9.62405C18.1637 9.5561 18.2239 9.45105 18.2368 9.33562L18.25 9.21667L18.2917 8.82501C18.3 8.77501 18.3 8.73334 18.3083 8.67501C18.375 7.83334 18.3583 6.68334 17.575 5.81667ZM10.9083 11.525C10.9083 12.4083 10.9083 12.5417 9.88332 12.5417C8.85832 12.5417 8.85832 12.3833 8.85832 11.5333V10.4833H10.9083V11.525ZM7.42499 4.60834C7.42499 3.19167 7.42499 2.66667 9.36666 2.66667H10.6333C12.575 2.66667 12.575 3.20001 12.575 4.60834V4.65001H7.42499V4.60834Z" fill="white"/>
<path d="M17.3946 11.4452C17.6892 11.3049 18.0286 11.5385 17.9991 11.8635L17.7 15.1583C17.525 16.825 16.8417 18.525 13.175 18.525H6.82499C3.15832 18.525 2.47499 16.825 2.29999 15.1667L2.01606 12.0435C1.98686 11.7223 2.31849 11.489 2.61236 11.6219C3.56187 12.0515 5.31449 12.8137 6.39713 13.0972C6.53406 13.1331 6.6448 13.2311 6.70475 13.3593C7.21056 14.4411 8.30758 15.0167 9.89166 15.0167C11.4601 15.0167 12.571 14.4189 13.0784 13.3345C13.1385 13.2062 13.2493 13.1082 13.3863 13.0722C14.536 12.7696 16.4015 11.9177 17.3946 11.4452Z" fill="white"/>
</svg>
