<svg width="20" height="20" viewBox="0 0 20 20" fill="none" xmlns="http://www.w3.org/2000/svg">
<path d="M16.6665 16.0501H9.10817C8.73317 16.0501 8.42484 15.7417 8.42484 15.3667C8.42484 14.9917 8.73317 14.6834 9.10817 14.6834H16.6665C17.0415 14.6834 17.3498 14.9917 17.3498 15.3667C17.3498 15.7501 17.0415 16.0501 16.6665 16.0501Z" fill="#7E92A2"/>
<path d="M16.6665 10.8084H9.10817C8.73317 10.8084 8.42484 10.5001 8.42484 10.1251C8.42484 9.75006 8.73317 9.44173 9.10817 9.44173H16.6665C17.0415 9.44173 17.3498 9.75006 17.3498 10.1251C17.3498 10.5001 17.0415 10.8084 16.6665 10.8084Z" fill="#7E92A2"/>
<path d="M16.6665 5.5584H9.10817C8.73317 5.5584 8.42484 5.25006 8.42484 4.87506C8.42484 4.50006 8.73317 4.19173 9.10817 4.19173H16.6665C17.0415 4.19173 17.3498 4.50006 17.3498 4.87506C17.3498 5.25006 17.0415 5.5584 16.6665 5.5584Z" fill="#7E92A2"/>
<path d="M4.09151 6.69173C3.90817 6.69173 3.73317 6.61673 3.60817 6.49173L2.84984 5.7334C2.58317 5.46673 2.58317 5.0334 2.84984 4.76673C3.11651 4.50006 3.54984 4.50006 3.81651 4.76673L4.09151 5.04173L5.87484 3.2584C6.14151 2.99173 6.57484 2.99173 6.84151 3.2584C7.10817 3.52506 7.10817 3.9584 6.84151 4.22506L4.57484 6.49173C4.44151 6.61673 4.27484 6.69173 4.09151 6.69173Z" fill="#7E92A2"/>
<path d="M4.09151 11.9417C3.91651 11.9417 3.74151 11.8751 3.60817 11.7417L2.84984 10.9834C2.58317 10.7167 2.58317 10.2834 2.84984 10.0167C3.11651 9.75006 3.54984 9.75006 3.81651 10.0167L4.09151 10.2917L5.87484 8.5084C6.14151 8.24173 6.57484 8.24173 6.84151 8.5084C7.10817 8.77506 7.10817 9.2084 6.84151 9.47506L4.57484 11.7417C4.44151 11.8751 4.26651 11.9417 4.09151 11.9417Z" fill="#7E92A2"/>
<path d="M4.09151 16.9417C3.91651 16.9417 3.74151 16.8751 3.60817 16.7417L2.84984 15.9834C2.58317 15.7167 2.58317 15.2834 2.84984 15.0167C3.11651 14.7501 3.54984 14.7501 3.81651 15.0167L4.09151 15.2917L5.87484 13.5084C6.14151 13.2417 6.57484 13.2417 6.84151 13.5084C7.10817 13.7751 7.10817 14.2084 6.84151 14.4751L4.57484 16.7417C4.44151 16.8751 4.26651 16.9417 4.09151 16.9417Z" fill="#7E92A2"/>
</svg>
