<svg width="20" height="20" viewBox="0 0 20 20" fill="none" xmlns="http://www.w3.org/2000/svg">
<path d="M10.0167 17.1084C8.07505 17.1084 6.13339 16.8001 4.29172 16.1834C3.59172 15.9417 3.05839 15.4501 2.82505 14.8084C2.58339 14.1667 2.66672 13.4584 3.05005 12.8251L4.00839 11.2334C4.20839 10.9001 4.39172 10.2334 4.39172 9.84173V7.4334C4.39172 4.3334 6.91672 1.8084 10.0167 1.8084C13.1167 1.8084 15.6417 4.3334 15.6417 7.4334V9.84173C15.6417 10.2251 15.8251 10.9001 16.0251 11.2417L16.9751 12.8251C17.3334 13.4251 17.4001 14.1501 17.1584 14.8084C16.9167 15.4667 16.3917 15.9667 15.7334 16.1834C13.9001 16.8001 11.9584 17.1084 10.0167 17.1084ZM10.0167 3.0584C7.60839 3.0584 5.64172 5.01673 5.64172 7.4334V9.84173C5.64172 10.4501 5.39172 11.3501 5.08339 11.8751L4.12505 13.4667C3.94172 13.7751 3.89172 14.1001 4.00005 14.3751C4.10005 14.6584 4.35005 14.8751 4.69172 14.9917C8.17505 16.1584 11.8667 16.1584 15.3501 14.9917C15.6501 14.8917 15.8834 14.6667 15.9917 14.3667C16.1001 14.0667 16.0751 13.7417 15.9084 13.4667L14.9501 11.8751C14.6334 11.3334 14.3917 10.4417 14.3917 9.8334V7.4334C14.3917 5.01673 12.4334 3.0584 10.0167 3.0584Z" fill="#7E92A2"/>
<path d="M11.5667 3.2834C11.5084 3.2834 11.4501 3.27507 11.3917 3.2584C11.1501 3.19173 10.9167 3.14173 10.6917 3.1084C9.98339 3.01673 9.30005 3.06673 8.65839 3.2584C8.42505 3.3334 8.17505 3.2584 8.01672 3.0834C7.85839 2.9084 7.80839 2.6584 7.90005 2.4334C8.24172 1.5584 9.07505 0.983398 10.0251 0.983398C10.9751 0.983398 11.8084 1.55007 12.1501 2.4334C12.2334 2.6584 12.1917 2.9084 12.0334 3.0834C11.9084 3.21673 11.7334 3.2834 11.5667 3.2834Z" fill="#7E92A2"/>
<path d="M10.0167 19.0084C9.19172 19.0084 8.39172 18.6751 7.80839 18.0917C7.22505 17.5084 6.89172 16.7084 6.89172 15.8834H8.14172C8.14172 16.3751 8.34172 16.8584 8.69172 17.2084C9.04172 17.5584 9.52505 17.7584 10.0167 17.7584C11.0501 17.7584 11.8917 16.9167 11.8917 15.8834H13.1417C13.1417 17.6084 11.7417 19.0084 10.0167 19.0084Z" fill="#7E92A2"/>
</svg>
