<svg width="20" height="20" viewBox="0 0 20 20" fill="none" xmlns="http://www.w3.org/2000/svg">
<path d="M10.0168 17.1083C8.07512 17.1083 6.13345 16.8 4.29178 16.1833C3.59178 15.9417 3.05845 15.45 2.82511 14.8083C2.58345 14.1667 2.66678 13.4583 3.05011 12.825L4.00845 11.2333C4.20845 10.9 4.39178 10.2333 4.39178 9.84167V7.43334C4.39178 4.33334 6.91678 1.80834 10.0168 1.80834C13.1168 1.80834 15.6418 4.33334 15.6418 7.43334V9.84167C15.6418 10.225 15.8251 10.9 16.0251 11.2417L16.9751 12.825C17.3334 13.425 17.4001 14.15 17.1584 14.8083C16.9168 15.4667 16.3918 15.9667 15.7334 16.1833C13.9001 16.8 11.9584 17.1083 10.0168 17.1083ZM10.0168 3.05834C7.60845 3.05834 5.64178 5.01667 5.64178 7.43334V9.84167C5.64178 10.45 5.39178 11.35 5.08345 11.875L4.12511 13.4667C3.94178 13.775 3.89178 14.1 4.00011 14.375C4.10011 14.6583 4.35011 14.875 4.69178 14.9917C8.17511 16.1583 11.8668 16.1583 15.3501 14.9917C15.6501 14.8917 15.8834 14.6667 15.9918 14.3667C16.1001 14.0667 16.0751 13.7417 15.9084 13.4667L14.9501 11.875C14.6334 11.3333 14.3918 10.4417 14.3918 9.83334V7.43334C14.3918 5.01667 12.4334 3.05834 10.0168 3.05834Z" fill="#7E92A2"/>
<path d="M11.5668 3.28334C11.5084 3.28334 11.4501 3.27501 11.3918 3.25834C11.1501 3.19167 10.9168 3.14167 10.6918 3.10834C9.98345 3.01667 9.30011 3.06667 8.65845 3.25834C8.42511 3.33334 8.17511 3.25834 8.01678 3.08334C7.85845 2.90834 7.80845 2.65834 7.90011 2.43334C8.24178 1.55834 9.07511 0.983339 10.0251 0.983339C10.9751 0.983339 11.8084 1.55001 12.1501 2.43334C12.2334 2.65834 12.1918 2.90834 12.0334 3.08334C11.9084 3.21667 11.7334 3.28334 11.5668 3.28334Z" fill="#7E92A2"/>
<path d="M10.0168 19.0083C9.19178 19.0083 8.39178 18.675 7.80845 18.0917C7.22511 17.5083 6.89178 16.7083 6.89178 15.8833H8.14178C8.14178 16.375 8.34178 16.8583 8.69178 17.2083C9.04178 17.5583 9.52512 17.7583 10.0168 17.7583C11.0501 17.7583 11.8918 16.9167 11.8918 15.8833H13.1418C13.1418 17.6083 11.7418 19.0083 10.0168 19.0083Z" fill="#7E92A2"/>
</svg>
