<svg width="20" height="20" viewBox="0 0 20 20" fill="none" xmlns="http://www.w3.org/2000/svg">
<path d="M16.6666 16.05H9.10824C8.73324 16.05 8.4249 15.7417 8.4249 15.3667C8.4249 14.9917 8.73324 14.6834 9.10824 14.6834H16.6666C17.0416 14.6834 17.3499 14.9917 17.3499 15.3667C17.3499 15.75 17.0416 16.05 16.6666 16.05Z" fill="#7E92A2"/>
<path d="M16.6666 10.8084H9.10824C8.73324 10.8084 8.4249 10.5 8.4249 10.125C8.4249 9.75002 8.73324 9.44168 9.10824 9.44168H16.6666C17.0416 9.44168 17.3499 9.75002 17.3499 10.125C17.3499 10.5 17.0416 10.8084 16.6666 10.8084Z" fill="#7E92A2"/>
<path d="M16.6666 5.55835H9.10824C8.73324 5.55835 8.4249 5.25002 8.4249 4.87502C8.4249 4.50002 8.73324 4.19168 9.10824 4.19168H16.6666C17.0416 4.19168 17.3499 4.50002 17.3499 4.87502C17.3499 5.25002 17.0416 5.55835 16.6666 5.55835Z" fill="#7E92A2"/>
<path d="M4.09157 6.69168C3.90824 6.69168 3.73324 6.61668 3.60824 6.49168L2.8499 5.73335C2.58324 5.46668 2.58324 5.03335 2.8499 4.76668C3.11657 4.50002 3.5499 4.50002 3.81657 4.76668L4.09157 5.04168L5.8749 3.25835C6.14157 2.99168 6.5749 2.99168 6.84157 3.25835C7.10824 3.52502 7.10824 3.95835 6.84157 4.22502L4.5749 6.49168C4.44157 6.61668 4.2749 6.69168 4.09157 6.69168Z" fill="#7E92A2"/>
<path d="M4.09157 11.9417C3.91657 11.9417 3.74157 11.875 3.60824 11.7417L2.8499 10.9834C2.58324 10.7167 2.58324 10.2833 2.8499 10.0167C3.11657 9.75002 3.5499 9.75002 3.81657 10.0167L4.09157 10.2917L5.8749 8.50835C6.14157 8.24168 6.5749 8.24168 6.84157 8.50835C7.10824 8.77502 7.10824 9.20835 6.84157 9.47502L4.5749 11.7417C4.44157 11.875 4.26657 11.9417 4.09157 11.9417Z" fill="#7E92A2"/>
<path d="M4.09157 16.9417C3.91657 16.9417 3.74157 16.875 3.60824 16.7417L2.8499 15.9834C2.58324 15.7167 2.58324 15.2833 2.8499 15.0167C3.11657 14.75 3.5499 14.75 3.81657 15.0167L4.09157 15.2917L5.8749 13.5083C6.14157 13.2417 6.5749 13.2417 6.84157 13.5083C7.10824 13.775 7.10824 14.2084 6.84157 14.475L4.5749 16.7417C4.44157 16.875 4.26657 16.9417 4.09157 16.9417Z" fill="#7E92A2"/>
</svg>
