<svg width="24" height="25" viewBox="0 0 24 25" fill="none" xmlns="http://www.w3.org/2000/svg">
<path d="M5.54 20.02C4.93 20.02 4.36 19.81 3.95 19.42C3.43 18.93 3.18 18.19 3.27 17.39L3.64 14.15C3.71 13.54 4.08 12.73 4.51 12.29L12.72 3.60002C14.77 1.43002 16.91 1.37002 19.08 3.42002C21.25 5.47002 21.31 7.61002 19.26 9.78002L11.05 18.47C10.63 18.92 9.85 19.34 9.24 19.44L6.02 19.99C5.85 20 5.7 20.02 5.54 20.02ZM15.93 3.41002C15.16 3.41002 14.49 3.89002 13.81 4.61002L5.6 13.31C5.4 13.52 5.17 14.02 5.13 14.31L4.76 17.55C4.72 17.88 4.8 18.15 4.98 18.32C5.16 18.49 5.43 18.55 5.76 18.5L8.98 17.95C9.27 17.9 9.75 17.64 9.95 17.43L18.16 8.74002C19.4 7.42002 19.85 6.20002 18.04 4.50002C17.24 3.73002 16.55 3.41002 15.93 3.41002Z" fill="#7E92A2"/>
<path d="M17.34 11.45C17.32 11.45 17.29 11.45 17.27 11.45C14.15 11.14 11.64 8.77002 11.16 5.67002C11.1 5.26002 11.38 4.88002 11.79 4.81002C12.2 4.75002 12.58 5.03002 12.65 5.44002C13.03 7.86002 14.99 9.72002 17.43 9.96002C17.84 10 18.14 10.37 18.1 10.78C18.05 11.16 17.72 11.45 17.34 11.45Z" fill="#7E92A2"/>
<path d="M21 23.25H3C2.59 23.25 2.25 22.91 2.25 22.5C2.25 22.09 2.59 21.75 3 21.75H21C21.41 21.75 21.75 22.09 21.75 22.5C21.75 22.91 21.41 23.25 21 23.25Z" fill="#7E92A2"/>
</svg>
