<svg width="22" height="23" viewBox="0 0 22 23" fill="none" xmlns="http://www.w3.org/2000/svg">
<path d="M16.0809 8.1162C17.3263 8.1162 18.3359 7.1066 18.3359 5.8612C18.3359 4.6158 17.3263 3.6062 16.0809 3.6062C14.8355 3.6062 13.8259 4.6158 13.8259 5.8612C13.8259 7.1066 14.8355 8.1162 16.0809 8.1162Z" stroke="white" stroke-width="1.5" stroke-miterlimit="10" stroke-linecap="round" stroke-linejoin="round"/>
<path d="M5.92542 8.1162C7.17082 8.1162 8.18041 7.1066 8.18041 5.8612C8.18041 4.6158 7.17082 3.6062 5.92542 3.6062C4.68001 3.6062 3.67041 4.6158 3.67041 5.8612C3.67041 7.1066 4.68001 8.1162 5.92542 8.1162Z" stroke="white" stroke-width="1.5" stroke-miterlimit="10" stroke-linecap="round" stroke-linejoin="round"/>
<path d="M16.0809 19.3927C17.3263 19.3927 18.3359 18.3831 18.3359 17.1377C18.3359 15.8923 17.3263 14.8827 16.0809 14.8827C14.8355 14.8827 13.8259 15.8923 13.8259 17.1377C13.8259 18.3831 14.8355 19.3927 16.0809 19.3927Z" stroke="white" stroke-width="1.5" stroke-miterlimit="10" stroke-linecap="round" stroke-linejoin="round"/>
<path d="M5.92542 19.3927C7.17082 19.3927 8.18041 18.3831 8.18041 17.1377C8.18041 15.8923 7.17082 14.8827 5.92542 14.8827C4.68001 14.8827 3.67041 15.8923 3.67041 17.1377C3.67041 18.3831 4.68001 19.3927 5.92542 19.3927Z" stroke="white" stroke-width="1.5" stroke-miterlimit="10" stroke-linecap="round" stroke-linejoin="round"/>
</svg>
