<svg width="93" height="44" viewBox="0 0 93 44" fill="none" xmlns="http://www.w3.org/2000/svg">
<path d="M22 42C33.0457 42 42 33.0457 42 22C42 10.9543 33.0457 2 22 2C10.9543 2 2 10.9543 2 22C2 33.0457 10.9543 42 22 42Z" stroke="#5A5A5A" stroke-width="2.75"/>
<path d="M28 22H16" stroke="#5A5A5A" stroke-width="2.75" stroke-linecap="round"/>
<path d="M73.3125 20.75V21.6875H74.25H80.5C80.6717 21.6875 80.8125 21.8284 80.8125 22C80.8125 22.1716 80.6717 22.3125 80.5 22.3125H74.25H73.3125V23.25V29.5C73.3125 29.6716 73.1717 29.8125 73 29.8125C72.8283 29.8125 72.6875 29.6716 72.6875 29.5V23.25V22.3125H71.75H65.5C65.3283 22.3125 65.1875 22.1716 65.1875 22C65.1875 21.8284 65.3283 21.6875 65.5 21.6875H71.75H72.6875V20.75V14.5C72.6875 14.3284 72.8283 14.1875 73 14.1875C73.1717 14.1875 73.3125 14.3284 73.3125 14.5V20.75ZM54.5625 22C54.5625 32.1802 62.8171 40.4375 73 40.4375C83.1829 40.4375 91.4375 32.1802 91.4375 22C91.4375 11.8198 83.1829 3.5625 73 3.5625C62.8171 3.5625 54.5625 11.8198 54.5625 22ZM53.9375 22C53.9375 11.4679 62.4714 2.9375 73 2.9375C83.5286 2.9375 92.0625 11.4679 92.0625 22C92.0625 32.5321 83.5286 41.0625 73 41.0625C62.4714 41.0625 53.9375 32.5321 53.9375 22Z" fill="#454545" stroke="#5A5A5A" stroke-width="1.875"/>
</svg>
