<svg width="24" height="24" viewBox="0 0 24 24" fill="none" xmlns="http://www.w3.org/2000/svg">
<path fill-rule="evenodd" clip-rule="evenodd" d="M3.83992 4.08002C2.77954 4.08002 1.91992 4.93963 1.91992 6.00002V12C1.91992 13.0604 2.77954 13.92 3.83992 13.92H20.1599C21.2203 13.92 22.0799 13.0604 22.0799 12V6.00002C22.0799 4.93963 21.2203 4.08002 20.1599 4.08002H3.83992ZM11.9999 12.24C12.6627 12.24 13.1999 11.7028 13.1999 11.04C13.1999 10.3773 12.6627 9.84002 11.9999 9.84002C11.3372 9.84002 10.7999 10.3773 10.7999 11.04C10.7999 11.7028 11.3372 12.24 11.9999 12.24Z" fill="#FFF9F9"/>
<path fill-rule="evenodd" clip-rule="evenodd" d="M9.11989 2.15997C8.8548 2.15997 8.63989 2.37488 8.63989 2.63997V5.51997C8.63989 5.78507 8.8548 5.99997 9.11989 5.99997H9.35989V3.35997C9.35989 3.09488 9.5748 2.87997 9.83989 2.87997H14.3999C14.665 2.87997 14.8799 3.09488 14.8799 3.35997V5.99997H15.1199C15.385 5.99997 15.5999 5.78507 15.5999 5.51997V2.63997C15.5999 2.37488 15.385 2.15997 15.1199 2.15997H9.11989Z" fill="#FFF9F9"/>
<path fill-rule="evenodd" clip-rule="evenodd" d="M1.91992 13.92V18.24C1.91992 19.3004 2.77954 20.16 3.83992 20.16H20.1599C21.2203 20.16 22.0799 19.3004 22.0799 18.24V13.92C22.0799 14.9804 21.2203 15.84 20.1599 15.84H3.83992C2.77954 15.84 1.91992 14.9804 1.91992 13.92Z" fill="#FFF9F9"/>
</svg>
