<svg width="16" height="16" viewBox="0 0 16 16" fill="none" xmlns="http://www.w3.org/2000/svg">
<g clip-path="url(#clip0_234_587)">
<path d="M7.99984 3C4.6665 3 1.81984 5.07333 0.666504 8C1.81984 10.9267 4.6665 13 7.99984 13C11.3332 13 14.1798 10.9267 15.3332 8C14.1798 5.07333 11.3332 3 7.99984 3ZM7.99984 11.3333C6.15984 11.3333 4.6665 9.84 4.6665 8C4.6665 6.16 6.15984 4.66667 7.99984 4.66667C9.83984 4.66667 11.3332 6.16 11.3332 8C11.3332 9.84 9.83984 11.3333 7.99984 11.3333ZM7.99984 6C6.89317 6 5.99984 6.89333 5.99984 8C5.99984 9.10667 6.89317 10 7.99984 10C9.1065 10 9.99984 9.10667 9.99984 8C9.99984 6.89333 9.1065 6 7.99984 6Z" fill="#FFF9F9"/>
</g>
<defs>
<clipPath id="clip0_234_587">
<rect width="16" height="16" fill="white"/>
</clipPath>
</defs>
</svg>
