<svg width="21" height="20" viewBox="0 0 21 20" fill="none" xmlns="http://www.w3.org/2000/svg">
<g clip-path="url(#clip0_227_1156)">
<path d="M14.2499 5.00004V14.5834C14.2499 16.425 12.7583 17.9167 10.9166 17.9167C9.07492 17.9167 7.58325 16.425 7.58325 14.5834V4.16671C7.58325 3.01671 8.51659 2.08337 9.66659 2.08337C10.8166 2.08337 11.7499 3.01671 11.7499 4.16671V12.9167C11.7499 13.375 11.3749 13.75 10.9166 13.75C10.4583 13.75 10.0833 13.375 10.0833 12.9167V5.00004H8.83325V12.9167C8.83325 14.0667 9.76659 15 10.9166 15C12.0666 15 12.9999 14.0667 12.9999 12.9167V4.16671C12.9999 2.32504 11.5083 0.833374 9.66659 0.833374C7.82492 0.833374 6.33325 2.32504 6.33325 4.16671V14.5834C6.33325 17.1167 8.38325 19.1667 10.9166 19.1667C13.4499 19.1667 15.4999 17.1167 15.4999 14.5834V5.00004H14.2499Z" fill="#72E5A0"/>
</g>
<defs>
<clipPath id="clip0_227_1156">
<rect width="20" height="20" fill="white" transform="translate(0.5)"/>
</clipPath>
</defs>
</svg>
