<svg width="18" height="12" viewBox="0 0 18 12" fill="none" xmlns="http://www.w3.org/2000/svg">
<g id="Group 16">
<path id="Rectangle 79" d="M0.599976 5.99999C0.599976 2.9072 3.10718 0.399994 6.19998 0.399994H11.8C14.8928 0.399994 17.4 2.9072 17.4 5.99999C17.4 9.09279 14.8928 11.6 11.8 11.6H6.19998C3.10718 11.6 0.599976 9.09279 0.599976 5.99999Z" fill="#DA9000"/>
<path id="P" d="M7.17383 8.79855V3.32175H9.11423C9.51183 3.32175 9.87023 3.37775 10.1894 3.48975C10.5142 3.59615 10.7718 3.77815 10.9622 4.03575C11.1582 4.29335 11.2562 4.64335 11.2562 5.08575C11.2562 5.51135 11.1582 5.86135 10.9622 6.13575C10.7662 6.41015 10.5058 6.61455 10.181 6.74895C9.85623 6.87775 9.50063 6.94215 9.11423 6.94215H8.40863V8.79855H7.17383ZM8.40863 5.95935H9.03863C9.38023 5.95935 9.63223 5.88375 9.79463 5.73255C9.96263 5.58135 10.0466 5.36575 10.0466 5.08575C10.0466 4.79455 9.95983 4.59295 9.78623 4.48095C9.61823 4.36335 9.36903 4.30455 9.03863 4.30455H8.40863V5.95935Z" fill="#FFF9F9"/>
</g>
</svg>
